<svg width="465" height="397" viewBox="0 0 465 397" fill="none" xmlns="http://www.w3.org/2000/svg">
<path d="M461.482 393.995C461.482 393.995 422.136 404.274 373.597 404.274C325.06 404.274 285.712 393.995 285.712 393.995C285.712 393.995 325.06 383.719 373.597 383.719C422.136 383.719 461.482 393.995 461.482 393.995Z" fill="#CBB59B"/>
<path d="M429.453 112.147L448.651 113.323C448.651 113.323 457.222 70.467 452.024 58.182C451.243 56.3252 450.145 55.1707 448.651 54.9622C442.783 54.1493 437.86 69.4017 434.476 84.3576C431.29 98.3901 429.453 112.147 429.453 112.147Z" fill="#FAB663"/>
<path d="M440.243 72.2116C443.437 69.973 447.144 68.4717 450.996 67.8587C447.963 70.8373 444.488 72.4202 440.243 72.2116Z" fill="#F7923D"/>
<path d="M439.095 83.1321C442.288 80.8934 445.995 79.3921 449.847 78.7791C446.815 81.7564 443.34 83.3394 439.095 83.1321Z" fill="#F7923D"/>
<path d="M437.849 94.5477C441.042 92.3077 444.751 90.8078 448.602 90.1934C445.57 93.1721 442.094 94.7549 437.849 94.5477Z" fill="#F7923D"/>
<path d="M434.476 84.3583C434.97 82.7101 435.432 81.0505 435.904 79.4023C437.322 74.5229 438.927 69.5883 441.882 65.4565C444.365 62.0068 447.947 59.1613 452.025 58.1827C451.243 56.3259 450.146 55.1714 448.652 54.9629C442.784 54.1501 437.86 69.4024 434.476 84.3583" fill="#F7923D"/>
<path d="M420.675 172.657L428.833 99.4144L454.213 101.544L446.479 172.657H420.675Z" fill="#C07E53"/>
<path d="M461.72 155.891C461.72 160.274 450.341 161.93 442.56 161.76C435.086 161.921 424.318 160.401 423.468 156.408C423.417 156.239 423.4 156.069 423.4 155.891C423.4 152.187 427.646 131.296 429.642 121.681C430.263 118.734 430.662 116.84 430.662 116.84H454.451C454.451 116.84 454.851 118.734 455.47 121.681C457.466 131.296 461.72 152.187 461.72 155.891" fill="#F04242"/>
<path d="M455.47 121.681C454.851 118.734 454.452 116.84 454.452 116.84H450.222H430.663C430.663 116.84 430.263 118.734 429.643 121.681H451.32C453.705 132.352 457.164 148.792 456.48 151.347C455.522 155.008 438.875 161.411 423.468 156.408C424.319 160.401 435.086 161.921 442.561 161.76C450.341 161.93 461.72 160.274 461.72 155.891C461.72 152.187 457.467 131.296 455.47 121.681" fill="#EF2D2E"/>
<path d="M456.483 118.807H428.632V112.451H456.483V118.807Z" fill="#F04242"/>
<path d="M451.028 142.269H429.836V132.784H451.028V142.269Z" fill="white"/>
<path d="M308.12 121.42L327.268 130.295L335.925 110.537L355.309 118.269C355.309 118.269 342.18 154.59 335.141 155.845C330.085 156.747 304.861 137.771 304.861 137.771L308.12 121.42" fill="#F68672"/>
<path d="M283.27 126.365C283.59 126.836 283.987 127.225 284.437 127.563L284.451 127.571C285.496 128.385 286.83 128.89 288.107 129.344C289.535 129.855 290.965 130.434 292.383 131.025C293.58 131.518 294.763 132.013 295.948 132.475C296.644 132.759 297.329 133.012 298.025 133.26L301.925 136.032C301.925 136.032 302.998 136.677 304.861 137.77L307.623 134.238L307.61 134.23L310.917 130L312.748 127.652L309.298 125.298L306.188 123.181C306.173 118.056 305.5 112.724 303.498 108.006C303.174 107.228 302.787 106.47 302.424 105.717L302.418 105.695C301.866 104.601 301.35 103.506 300.995 102.338C300.34 100.155 300.365 97.8398 300.106 95.5672C300.065 95.2142 300.008 94.8549 299.942 94.4994C299.845 93.9001 299.669 93.2707 299.207 92.8901L299.135 92.8449C298.532 92.4165 297.648 92.5471 297.044 92.9881L296.791 93.2054C296.319 93.6627 296.012 94.2845 295.747 94.8938L295.664 95.1375C294.35 98.4428 294.177 102.176 295.149 105.585C295.275 106.024 295.426 106.503 295.285 106.925C295.153 107.308 294.807 107.588 294.471 107.822C293.093 108.747 291.451 109.195 289.777 109.322C288.952 109.387 288.1 109.37 287.257 109.304L287.233 109.301C286.201 109.214 285.107 109.08 284.2 109.536C283.472 109.914 283.022 110.592 282.735 111.381L282.684 111.51C282.467 112.127 282.359 112.802 282.282 113.431C282.24 113.764 282.207 114.095 282.189 114.443C281.939 117.059 281.927 119.703 282.159 122.327C282.274 123.742 282.47 125.2 283.27 126.365" fill="#F36269"/>
<path d="M299.202 92.8876C299.671 93.267 299.84 93.8989 299.947 94.5006C300.008 94.8549 300.061 95.218 300.106 95.5722C300.364 97.8386 300.344 100.151 300.994 102.333C301.346 103.506 301.867 104.602 302.421 105.698V105.713C302.79 106.469 303.173 107.225 303.503 108.004C305.498 112.725 306.173 118.053 306.185 123.179L312.75 127.655L310.919 130.001L307.62 134.243L304.861 137.77L300.282 130.043C301.011 125.149 302.655 115.526 301.766 109.426C301.606 108.34 301.37 107.376 301.032 106.558C300.632 105.617 300.195 104.668 299.781 103.712C298.975 101.852 298.293 99.9616 298.345 97.9579L298.352 97.6413C298.362 96.5396 298.257 95.2142 297.409 94.8574C297.301 94.8109 297.193 94.7808 297.071 94.7644C296.585 94.7092 296.138 94.9855 295.66 95.1388L295.744 94.9001C296.008 94.2846 296.317 93.6677 296.796 93.2067L297.043 92.9919C297.646 92.5459 298.532 92.4165 299.132 92.8499L299.202 92.8876" fill="#F68672"/>
<path d="M293.072 119.662C293.019 122.414 293.756 125.147 294.965 127.618C293.201 125.582 291.803 123.137 291.45 120.466C291.098 117.794 291.921 114.885 293.965 113.129C294.336 112.811 294.802 112.418 295.24 112.304C295.259 113.289 294.094 114.651 293.762 115.637C293.326 116.933 293.098 118.297 293.072 119.662" fill="#F14568"/>
<path d="M309.368 124.282C309.269 128.468 309.159 132.258 309.081 134.774C309.026 136.52 307.599 137.905 305.851 137.905H288.898C287.151 137.905 285.724 136.52 285.668 134.774C285.59 132.258 285.481 128.468 285.382 124.282C285.261 119.183 285.173 113.514 285.196 108.877C285.229 103.9 285.382 100.131 285.768 99.5169C287.064 97.5057 291.481 95.4956 291.481 95.4956L292.525 89.6841H302.216L303.269 95.4956C303.269 95.4956 307.687 97.5057 308.982 99.5169C309.368 100.131 309.521 103.9 309.544 108.877C309.576 113.514 309.488 119.183 309.368 124.282" fill="#D1F0FC"/>
<path d="M302.475 91.0967H292.274C291.626 91.0967 291.099 90.5703 291.099 89.9208V89.2588C291.099 88.6105 291.626 88.0842 292.274 88.0842H302.475C303.123 88.0842 303.649 88.6105 303.649 89.2588V89.9208C303.649 90.5703 303.123 91.0967 302.475 91.0967Z" fill="#363950"/>
<path d="M309.368 124.282H285.382C285.261 119.183 285.173 113.514 285.196 108.878H309.544C309.576 113.514 309.488 119.183 309.368 124.282" fill="white"/>
<path d="M283.059 127.285C287.222 128.443 292.234 126.699 292.234 126.699C292.534 125.807 292.685 124.766 292.711 123.65C292.735 123.182 292.727 122.699 292.703 122.204C292.649 121.111 292.52 119.968 292.32 118.82C292.24 118.318 292.147 117.811 292.044 117.31C291.765 115.976 291.436 114.664 291.087 113.451C290.946 112.927 290.795 112.426 290.651 111.944C290.246 110.643 289.861 109.521 289.558 108.686C289.209 107.717 288.975 107.137 288.975 107.137C285.014 107.232 279.66 110.5 279.66 110.5C279.321 111.975 279.254 113.547 279.375 115.108C279.831 121.242 283.059 127.285 283.059 127.285" fill="#F68672"/>
<path d="M284.696 114.059C284.696 114.059 285.252 114.087 286.071 114.072C286.896 114.054 287.978 114.018 289.135 113.844C289.839 113.74 290.499 113.598 291.087 113.451C290.946 112.927 290.795 112.426 290.651 111.945C290.101 111.893 289.493 111.898 288.861 111.988C287.578 112.182 286.5 112.709 285.785 113.182C285.071 113.656 284.696 114.059 284.696 114.059" fill="#D03B58"/>
<path d="M286.249 119.152C286.249 119.152 286.778 119.225 287.557 119.261C288.341 119.294 289.375 119.31 290.485 119.172C291.143 119.09 291.764 118.955 292.321 118.82C292.24 118.318 292.147 117.811 292.044 117.31C291.499 117.245 290.888 117.225 290.248 117.308C289.042 117.461 288.009 117.929 287.318 118.353C286.623 118.784 286.249 119.152 286.249 119.152Z" fill="#D03B58"/>
<path d="M286.211 124.071C286.211 124.071 286.762 124.153 287.59 124.194C288.422 124.229 289.526 124.237 290.711 124.073C291.434 123.973 292.114 123.817 292.711 123.65C292.735 123.182 292.727 122.699 292.703 122.204C292.04 122.121 291.267 122.101 290.452 122.215C289.187 122.391 288.107 122.859 287.368 123.282C286.623 123.705 286.211 124.071 286.211 124.071" fill="#D03B58"/>
<path d="M279.375 115.108C280.032 113.948 280.797 112.865 281.822 112.029C282.758 111.26 283.868 110.738 284.976 110.261C286.245 109.713 287.58 109.075 288.931 108.756C289.107 108.711 289.323 108.698 289.558 108.686C289.209 107.717 288.975 107.137 288.975 107.137C285.014 107.232 279.66 110.5 279.66 110.5C279.321 111.975 279.254 113.548 279.375 115.108" fill="#F9AA7F"/>
<path d="M376.359 381.164L373.453 367.322L374.806 340.798L354.418 341.584L352.522 370.901L358.588 381.847L374.355 384.94L376.359 381.164" fill="#F36269"/>
<path d="M319.254 388.903L377.23 388.226C377.113 387.147 376.805 384.446 376.359 381.164C372.369 381.419 367.104 381.304 364.266 379.425C360.738 377.089 358.549 369.899 357.582 365.924L348.034 365.794C347.125 367.957 344.773 373.054 341.96 375.456C338.336 378.562 324.758 384.257 321.068 386.069C319.806 386.69 319.381 387.878 319.254 388.903" fill="#282A3E"/>
<path d="M319.312 393.995L319.253 388.897L377.228 388.226L377.294 393.995H319.312" fill="#DCDDDA"/>
<path d="M347.726 346.648C349.683 346.965 353.004 347.006 356.943 346.9C362.23 346.74 368.634 346.301 374.333 345.831C376.042 345.698 377.699 345.558 379.235 345.414C380.859 345.275 382.341 345.135 383.653 345.006C386.993 344.691 389.152 344.465 389.152 344.465L384.292 269.992C384.292 269.992 399.483 220.168 402.822 205.55C402.095 200.387 400.756 194.107 399.302 188.061L389.253 189.96L352.523 184.818C351.148 207.491 352.183 261.709 351.799 265.096C351.745 265.596 351.713 266.269 351.703 267.112L351.697 267.178L347.726 346.648" fill="#A3889F"/>
<path d="M357.267 283.51C360.139 286.465 364.01 285.18 366.102 280.969C367.221 278.713 367.919 276.136 367.758 273.517C367.597 270.897 366.509 268.244 364.59 266.586C362.67 264.93 359.899 264.439 357.843 265.674C355.41 267.136 354.502 270.47 354.35 273.558C354.225 276.08 354.487 278.71 355.578 280.997C356.077 282.039 356.649 282.873 357.267 283.51" fill="#B99EB2"/>
<path d="M418.48 379.423L414.343 365.899L413.31 339.36L393.077 341.971L393.819 371.341L400.842 381.698L416.823 383.365L418.48 379.423" fill="#F68672"/>
<path d="M362.3 392.255L419.981 386.377C419.767 385.313 419.218 382.649 418.479 379.421C414.528 380.032 409.273 380.39 406.28 378.774C402.556 376.765 399.732 369.801 398.409 365.928L388.89 366.656C388.177 368.891 386.293 374.178 383.708 376.823C380.374 380.243 367.364 387.134 363.852 389.268C362.651 390.001 362.333 391.222 362.3 392.255Z" fill="#363950"/>
<path d="M362.815 397.322L362.298 392.249L419.979 386.376L420.519 391.687L362.815 397.322" fill="white"/>
<path d="M381.561 346.555C383.539 346.678 386.849 346.399 390.759 345.91C396.005 345.237 402.335 344.177 407.962 343.157C409.65 342.858 411.286 342.556 412.801 342.265C414.403 341.968 415.865 341.685 417.158 341.43C420.452 340.792 422.577 340.355 422.577 340.355L410.505 266.708C410.505 266.708 420.783 215.644 422.685 200.771C421.46 195.702 419.518 189.583 417.483 183.706L407.665 186.573L373.597 186.098C374.432 208.797 377.744 261.583 377.691 264.993C377.686 265.495 377.718 266.167 377.791 267.009V267.074L381.561 346.555" fill="#B99EB2"/>
<path d="M402.421 269.006L417.158 341.43C420.452 340.792 422.578 340.355 422.578 340.355L410.505 266.707C410.505 266.707 420.784 215.644 422.686 200.771C421.461 195.702 419.519 189.582 417.484 183.706L407.666 186.572C409.084 194.222 411.711 208.778 411.43 211.328C411.117 214.091 405.572 249.151 403.343 263.225C402.77 266.795 402.421 269.006 402.421 269.006" fill="#A3889F"/>
<path d="M384.921 282.79C388.066 285.45 391.794 283.796 393.467 279.401C394.362 277.047 394.807 274.415 394.392 271.824C393.979 269.233 392.636 266.695 390.566 265.233C388.493 263.771 385.688 263.552 383.763 264.981C381.482 266.673 380.901 270.081 381.051 273.168C381.173 275.689 381.688 278.282 382.996 280.452C383.594 281.442 384.243 282.215 384.921 282.79Z" fill="#D0B6C7"/>
<path d="M344.545 73.9449C345.138 79.1471 349.586 83.0239 354.055 85.7551C372.793 97.2537 397.759 97.7562 416.941 87.0201C421.83 84.279 426.481 80.7237 429.132 75.7828C429.423 75.2401 429.684 74.6786 429.906 74.1057C431.794 69.4361 431.632 63.8231 428.529 59.9162C426.54 57.4061 423.618 55.8584 421.138 53.8408C418.658 51.8321 416.438 48.91 416.83 45.7366C417.313 41.7191 421.721 38.9968 422.123 34.9704C422.423 31.9278 420.305 29.1665 417.955 27.208C412.481 22.6678 410.604 16.9543 406.416 11.6315C401.675 5.60644 393.522 1.62031 386.09 0.424343C379.934 -0.580671 373.407 0.163071 367.904 3.0952C362.39 6.02858 358.021 11.2496 356.685 17.3463C355.712 21.7947 356.293 26.6753 354.175 30.7029C352.88 33.1627 350.66 35.1011 349.655 37.6915C349.072 39.1878 348.933 40.7442 349.033 42.3209C349.275 46.1475 350.861 50.1449 350.589 54.0406C350.109 61.0405 343.741 66.9751 344.545 73.9449" fill="#FABF75"/>
<path d="M350.612 72.6632C350.612 72.6632 346.483 74.0664 344.474 78.3691C342.465 82.6731 325.439 113.356 325.439 113.356L354.064 123.396L350.612 72.6632Z" fill="#88C036"/>
<path d="M323.941 115.913L327.123 108.118L355.187 119.344L352.884 126.821L323.941 115.913Z" fill="#61AE32"/>
<path d="M425.022 195.294C425.022 195.294 372.647 200.116 350.612 195.613L354.064 134.63L350.612 72.6643L360.249 69.8615L373.613 65.9671L380.259 66.9533L390.924 63.8038C390.924 63.8038 395.638 65.2008 401.537 67.4683C408.099 69.9871 416.12 73.5776 420.675 77.4933L425.022 195.294Z" fill="#88C036"/>
<path d="M401.535 67.4661C397.416 71.564 387.901 80.0463 379.187 81.1782C370.299 82.3202 363.092 73.8278 360.247 69.8605L365.278 68.3995L373.617 65.9711L380.254 66.9497L390.922 63.8066C390.922 63.8066 392.987 64.4221 396.085 65.4875C397.68 66.0377 399.535 66.6972 401.535 67.4661Z" fill="#F68672"/>
<path d="M401.535 67.4661C397.416 71.564 387.901 80.0463 379.187 81.1782C370.299 82.3202 363.092 73.8278 360.247 69.8605L365.278 68.3995C367.674 71.8165 373.265 78.9031 378.418 78.6066C383.77 78.2989 392.592 69.3002 396.085 65.4875C397.68 66.0377 399.535 66.6972 401.535 67.4661Z" fill="#61AE32"/>
<path d="M394.25 64.8631C394.25 64.8631 380.311 71.3065 378.355 70.5804C376.399 69.8643 373.615 65.9699 373.615 65.9699C374.022 65.4686 376.86 63.5089 376.715 61.9863C376.385 58.4737 375.1 53.5781 375.1 53.5781L386.88 49.5216C386.88 49.5216 387.367 52.8921 388.048 56.4599C388.735 60.073 393.504 64.3104 394.25 64.8631" fill="#F68672"/>
<path d="M388.045 56.4569C384.808 58.8739 380.829 61.7357 379.53 62.1792C378.467 62.5372 377.477 62.3224 376.72 61.9882C376.383 58.4732 375.097 53.5838 375.097 53.5838L386.877 49.5261C386.877 49.5261 387.369 52.9004 388.045 56.4569" fill="#F36269"/>
<path d="M393.372 16.4908C386.908 9.09517 376.077 6.87539 367.57 11.7861C365.614 12.9143 364.053 14.1969 363.351 15.6089C360.54 21.2533 356.535 42.0257 360.842 52.0093C365.146 61.9941 371.923 60.626 374.338 59.9225C376.751 59.2203 388.093 54.4904 390.715 50.792C393.338 47.0923 398.958 28.002 397.706 23.0272C397.287 21.3664 395.529 18.9606 393.372 16.4908" fill="#F9AA7F"/>
<path d="M394.145 14.9956C387.683 7.59873 376.851 5.37765 368.344 10.2897C366.389 11.419 364.826 12.7004 364.124 14.1124C361.315 19.7581 357.31 40.5292 361.615 50.5128C365.921 60.4976 372.697 59.1295 375.111 58.426C377.524 57.7238 388.866 52.9939 391.489 49.2955C394.111 45.5958 399.733 26.5055 398.48 21.532C398.062 19.8699 396.302 17.4642 394.145 14.9956" fill="#F68672"/>
<path d="M391.817 40.465C392.422 40.1773 395.486 36.1862 397.621 38.6284C399.754 41.0693 400.313 45.0931 398.283 47.3418C396.428 49.3933 393.849 51.6043 390.715 50.794L391.817 40.465" fill="#F68672"/>
<path d="M397.54 41.6973C397.663 42.235 397.574 42.7915 397.401 43.3179C396.666 45.5565 394.534 47.2425 392.493 48.8065C393.116 47.7261 393.356 46.4987 393.248 45.2977C393.21 44.8794 393.132 44.4636 393.133 44.0465C393.141 42.3606 396.821 38.5202 397.54 41.6973" fill="#F36269"/>
<path d="M391.468 49.4348L391.584 49.3669C391.658 49.3204 391.777 49.2601 391.913 49.1646C392.186 48.9762 392.564 48.6734 392.923 48.2212C393.279 47.7689 393.605 47.1659 393.766 46.4473C393.912 45.7313 393.895 44.8933 393.544 44.083L393.4 43.7853L393.36 43.7137L393.355 43.7049L393.356 43.7062H393.354L393.359 43.6948L393.394 43.6295L393.463 43.5027L393.609 43.2551C393.804 42.9285 394.013 42.622 394.23 42.3368C394.446 42.0529 394.668 41.7904 394.889 41.5529C395.111 41.3155 395.325 41.0931 395.536 40.9286C395.748 40.764 395.978 40.6572 396.194 40.6308C396.41 40.607 396.613 40.6622 396.75 40.7364C396.888 40.8117 396.962 40.9072 396.993 40.9788L397.027 41.0919L397.024 40.9713C397.011 40.8934 396.957 40.774 396.819 40.6622C396.683 40.5554 396.469 40.4524 396.183 40.4411C395.899 40.4336 395.591 40.5316 395.315 40.6924C395.035 40.8544 394.785 41.0579 394.52 41.2816C394.257 41.5077 393.99 41.7615 393.733 42.0466C393.477 42.3306 393.228 42.6434 393.002 42.9838L392.836 43.2439L392.757 43.377L392.652 43.5655L392.579 43.6974L392.647 43.8318L392.747 44.0253L392.87 44.2828C393.176 44.9863 393.236 45.7187 393.168 46.3745C393.086 47.0302 392.87 47.6119 392.61 48.0717C392.35 48.5327 392.055 48.8732 391.834 49.0981L391.565 49.3468L391.468 49.4348" fill="#D03B58"/>
<path d="M372.413 41.0411C372.933 40.9582 373.468 40.7886 373.972 40.9406C373.233 42.0122 372.057 42.7735 370.779 43.0097L370.478 43.021C370.359 42.9934 370.26 42.9117 370.167 42.8313C369.585 42.3175 369.104 41.6868 368.762 40.9884C368.694 40.8464 368.63 40.6982 368.624 40.5411C368.603 40.0198 368.924 40.1956 369.198 40.369C369.515 40.5713 369.858 40.7333 370.214 40.8527C370.919 41.0876 371.679 41.1579 372.413 41.0411" fill="#F36269"/>
<path d="M370.727 42.7031C370.476 42.3727 370.18 42.0762 369.92 41.7509C369.599 41.3488 369.31 40.9217 369.073 40.4657C370.909 39.6654 371.222 37.9707 371.518 36.0386C371.651 35.1668 371.575 34.266 371.303 33.4281C371.158 32.9871 370.961 32.565 370.716 32.1718C370.59 31.9733 370.453 31.7811 370.305 31.5977C370.161 31.4193 369.997 31.305 369.805 31.1781C369.883 31.3112 369.925 31.457 369.992 31.5914C370.168 31.9444 370.359 32.2773 370.497 32.6479C370.636 33.0185 370.741 33.4017 370.815 33.7912C370.962 34.5688 370.982 35.3728 370.858 36.1554C370.737 36.923 370.475 37.6718 370.056 38.3288C369.582 39.0775 368.859 39.7748 368.029 40.1039C368.021 40.1064 368.884 41.6089 368.972 41.7345C369.202 42.0599 369.461 42.3639 369.749 42.6378C370.034 42.9054 370.358 43.2207 370.756 43.2823C370.882 43.3024 371.014 43.2986 371.129 43.2471L370.969 43.0561L370.91 42.9657L370.727 42.7031" fill="#F14568"/>
<path d="M380.907 45.7592C376.896 47.974 371.906 48.3333 367.618 46.7152C369.71 48.1825 372.038 49.1185 374.589 48.9627C377.139 48.8056 379.009 47.4702 380.907 45.7592Z" fill="#F14568"/>
<path d="M376.953 50.1858C375.278 51.2059 373.097 51.3428 371.308 50.5413C371.988 51.4056 372.941 51.9496 374.04 51.9471C375.141 51.9458 376.277 51.0526 376.953 50.1858Z" fill="#F14568"/>
<path d="M361.527 25.9205C361.527 25.9205 364.523 23.624 366.392 23.8087C368.259 23.9921 368.816 25.707 368.078 26.0449C367.342 26.3841 361.527 25.9205 361.527 25.9205Z" fill="#FCD18A"/>
<path d="M387.926 28.9102C387.926 28.9102 383.63 25.1087 380.733 24.5484C377.834 23.9881 376.744 25.6803 377.832 26.3612C378.92 27.0421 387.926 28.9102 387.926 28.9102Z" fill="#FCD18A"/>
<path d="M380.286 42.126C380.401 43.0154 382.398 43.4903 384.745 43.1863C387.093 42.8823 388.902 41.9149 388.788 41.0267C388.672 40.1373 386.676 39.6637 384.329 39.9665C381.981 40.2705 380.171 41.2378 380.286 42.126Z" fill="#F36269"/>
<path d="M357.429 37.5082C357.138 38.1212 358.399 39.3297 360.247 40.2066C362.095 41.0835 363.829 41.2983 364.119 40.6853C364.41 40.0709 363.148 38.8637 361.301 37.9868C359.453 37.1087 357.719 36.8951 357.429 37.5082Z" fill="#F36269"/>
<path d="M385.039 31.479C384.614 32.1687 383.54 32.5707 382.802 32.7742C382.529 32.3119 382.148 31.9978 381.691 31.9124C380.523 31.6963 379.292 33.0431 378.945 34.9212C378.597 36.798 379.264 38.4965 380.432 38.7126C381.602 38.9287 382.832 37.582 383.18 35.7038C383.288 35.1222 383.298 34.5594 383.225 34.0506C384.263 33.4312 385.039 31.479 385.039 31.479" fill="#121414"/>
<path d="M381.064 35.5622C381.064 35.5622 382.177 36.1828 383.36 35.9592C384.545 35.7356 385.353 34.7507 385.353 34.7507C385.353 34.7507 384.242 34.1301 383.056 34.3537C381.873 34.5773 381.064 35.5622 381.064 35.5622Z" fill="white"/>
<path d="M362.276 29.7933C362.398 30.434 363.092 31.047 363.589 31.4126C363.928 31.1438 364.304 31.0156 364.673 31.0847C365.617 31.2581 366.156 32.6275 365.876 34.1425C365.597 35.6563 364.606 36.743 363.662 36.5696C362.72 36.3962 362.181 35.0269 362.461 33.5119C362.546 33.0433 362.701 32.6149 362.902 32.253C362.299 31.4867 362.276 29.7933 362.276 29.7933" fill="#121414"/>
<path d="M364.094 34.0135C364.094 34.0135 363.078 34.1605 362.25 33.6504C361.422 33.1404 361.097 32.1668 361.097 32.1668C361.097 32.1668 362.113 32.0185 362.941 32.5286C363.769 33.0386 364.094 34.0135 364.094 34.0135" fill="white"/>
<path d="M399.546 42.7136C399 41.4033 398.214 39.9598 396.87 39.5025C395.526 39.044 394.235 39.4485 393.001 40.1533C393.77 36.142 395.236 31.6232 396.565 27.7602C388.936 26.0165 382.124 20.9575 378.251 14.1573C378.24 16.6925 379.287 19.2151 381.09 20.9977C377.912 20.9588 374.808 19.21 373.124 16.5154C369.947 20.0115 365.485 22.5065 360.761 22.5191C361.08 15.6938 364.96 9.04179 371.026 5.8986C377.093 2.75417 384.676 2.89113 390.763 5.99411C396.851 9.09584 401.361 15.0141 403.032 21.6397C404.7 28.2652 402.876 36.7475 399.546 42.7136Z" fill="#FABF75"/>
<path d="M349.033 42.3199C351.443 39.9204 353.192 36.7572 354.536 33.5939C356.524 28.8628 357.901 23.8227 360.742 19.5539C363.796 14.9647 368.345 11.5916 372.793 8.32658C373.868 9.52129 374.953 10.716 376.037 11.912C376.65 10.4849 377.253 9.06021 377.865 7.63435C383.779 15.5978 392.738 21.231 402.479 23.1091C400.922 26.2523 403.866 29.717 406.687 31.7861C409.509 33.864 412.893 36.4657 412.442 39.9405C412.059 42.9631 408.897 44.8513 407.761 47.6729C406.044 51.9417 409.519 56.6213 413.496 58.9315C417.474 61.2506 422.183 62.375 425.597 65.4578C428.048 67.6676 429.544 70.8309 429.906 74.1047C431.794 69.4352 431.632 63.8222 428.529 59.9152C428.339 59.674 428.138 59.4428 427.937 59.2217C425.989 57.1024 423.378 55.6665 421.138 53.8399C418.658 51.8311 416.438 48.909 416.83 45.7357C417.313 41.7181 421.721 38.9958 422.123 34.9695C422.423 31.9268 420.305 29.1656 417.955 27.207C412.481 22.6669 410.604 16.9533 406.416 11.6305C401.675 5.60548 393.522 1.61935 386.089 0.423385C379.934 -0.581629 373.407 0.162114 367.904 3.09424C362.39 6.02763 358.021 11.2487 356.685 17.3453C356.536 18.0375 356.424 18.731 356.335 19.4433C355.831 23.29 355.963 27.2962 354.175 30.7019C352.88 33.1617 350.66 35.1002 349.655 37.6906C349.072 39.1868 348.933 40.7433 349.033 42.3199" fill="#FCD18A"/>
<path d="M356.334 19.445C357.086 19.0945 357.8 18.6724 358.452 18.19C361.475 15.9601 363.614 12.7566 366.015 9.86593C368.404 6.9627 371.336 4.21023 375.022 3.44768C375.153 4.36224 375.284 5.27556 375.424 6.19012C377.795 4.44265 380.696 3.40747 383.649 3.25672C389.253 11.2303 397.879 17.0154 407.379 19.1749C406.395 21.896 408.354 24.7678 410.482 26.7263C412.602 28.6848 415.152 30.5529 415.825 33.3544C416.639 36.7488 414.39 40.083 414.027 43.5477C413.625 47.4736 415.724 51.3203 418.667 53.9408C421.328 56.3215 424.622 57.8679 427.936 59.2234C425.988 57.1041 423.377 55.6682 421.137 53.8416C418.657 51.8328 416.438 48.9107 416.83 45.7374C417.312 41.7199 421.72 38.9975 422.122 34.9712C422.422 31.9285 420.304 29.1673 417.954 27.2087C412.48 22.6686 410.603 16.9551 406.415 11.6322C401.674 5.60719 393.521 1.62106 386.089 0.42509C379.933 -0.579924 373.407 0.163818 367.903 3.09595C362.389 6.02933 358.02 11.2504 356.684 17.347C356.535 18.0392 356.423 18.7327 356.334 19.445" fill="#FDE498"/>
<path d="M431.9 154.137C431.886 154.252 431.874 154.362 431.854 154.477C431.689 155.478 431.43 156.478 431.077 157.446C430.375 159.365 429.307 161.149 427.87 162.545C427.496 162.913 427.101 163.253 426.672 163.552C426.331 163.811 425.971 164.036 425.59 164.247C423.554 165.364 421.258 165.691 418.978 165.412C418.461 165.35 417.944 165.255 417.427 165.125C415.574 164.675 413.776 163.845 412.197 162.73C411.448 162.198 410.747 161.613 410.114 160.966L409.808 160.639C406.029 156.635 404.19 151.168 402.931 145.81C401.113 138.055 398.608 127.503 401.678 119.727C402.455 117.766 403.912 116.214 405.708 115.118C406.411 114.689 407.167 114.328 407.95 114.042C408.344 113.892 408.745 113.763 409.154 113.661C409.63 113.532 410.114 113.422 410.604 113.347C411.04 113.279 411.476 113.233 411.912 113.205C412.36 113.177 412.818 113.171 413.266 113.191C413.907 113.211 414.54 113.279 415.159 113.396C415.663 113.49 416.153 113.613 416.623 113.777C417.202 113.96 417.746 114.192 418.27 114.471C423.104 117.079 425.493 122.601 427.197 127.815C428.783 132.649 430.076 137.572 431.091 142.555C431.868 146.368 432.473 150.298 431.9 154.137" fill="#20795A"/>
<path d="M412.197 162.73C411.448 162.199 410.747 161.614 410.114 160.967L409.808 160.64C409.712 160.408 409.617 160.176 409.527 159.938C406.676 152.524 405.041 144.538 403.701 136.722C402.467 129.532 402.142 121.668 405.708 115.119C406.411 114.689 407.167 114.329 407.95 114.042L407.888 114.145C405.471 117.733 404.388 121.988 404.205 126.277C404.028 130.498 404.667 134.693 405.471 138.825C406.206 142.638 406.996 146.444 407.942 150.209C409.017 154.485 410.353 158.733 412.197 162.73" fill="#51C292"/>
<path d="M418.979 165.412C418.461 165.35 417.945 165.255 417.427 165.125C416.677 163.09 415.921 161.061 415.173 159.025C413.729 155.11 411.938 151.168 411.088 147.07C410.27 143.114 410.393 139.035 409.589 135.073C408.793 131.166 407.779 127.319 407.848 123.302C407.902 120.047 408.474 116.841 409.155 113.661C409.631 113.532 410.114 113.422 410.604 113.347C409.76 117.275 409.025 121.253 409.25 125.283C409.467 129.232 410.692 133.024 411.305 136.912C411.932 140.867 411.776 144.898 412.927 148.765C414.083 152.653 415.67 156.444 417.072 160.251C417.712 161.973 418.345 163.689 418.979 165.412" fill="#51C292"/>
<path d="M427.87 162.547C427.496 162.915 427.101 163.255 426.672 163.554C426.209 160.675 425.536 157.828 424.724 155.023C422.614 147.725 419.605 140.753 416.935 133.659C414.457 127.069 412.34 120.267 411.912 113.207C412.36 113.179 412.817 113.173 413.266 113.193C413.503 117.046 414.26 120.845 415.316 124.556C417.373 131.827 420.469 138.752 423.084 145.826C425.099 151.272 426.869 156.835 427.87 162.547" fill="#51C292"/>
<path d="M431.9 154.137C431.886 154.253 431.874 154.362 431.854 154.477C431.689 155.479 431.43 156.479 431.077 157.446C430.9 156.207 430.689 154.975 430.444 153.743C428.959 146.192 426.373 138.969 422.914 132.106C419.878 126.08 416.433 120.081 415.159 113.396C415.663 113.49 416.153 113.614 416.623 113.777C417.344 117.134 418.61 120.347 420.081 123.451C421.688 126.856 423.512 130.151 425.14 133.548C426.775 136.953 428.19 140.459 429.347 144.054C430.41 147.356 431.261 150.726 431.9 154.137" fill="#51C292"/>
<path d="M460.631 131.603C460.631 131.603 467.024 188.489 463.247 194.051C459.469 199.611 438.349 204.948 430.894 205.748C423.439 206.548 403.681 194.051 403.681 194.051L399.546 138.387L460.631 131.603Z" fill="#46689C"/>
<path d="M405.702 135.951C405.702 135.951 401.905 103.945 402.823 100.444C403.74 96.9441 414.561 73.3828 414.561 73.3828C414.561 73.3828 420.185 74.8803 420.676 77.4921C420.676 77.4921 408.049 99.8813 408.049 102.818C408.049 105.756 411.677 135.478 411.677 135.478L405.702 135.951" fill="#46689C"/>
<path d="M420.675 77.4923C420.675 77.4923 434.645 85.7811 436.22 92.2145C437.599 97.8375 443.597 120.796 443.597 120.796L418.265 123.396L416.179 94.7383L420.675 77.4923Z" fill="#88C036"/>
<path d="M416.179 120.902L443.597 115.912L446.365 126.389L416.179 129.134V120.902Z" fill="#61AE32"/>
<path d="M453.703 286.678C451.384 297.125 431.189 305.739 422.223 306.267C413.27 306.783 394.361 298.433 394.548 292.423C394.734 286.424 394.548 240.927 394.548 240.927L394.778 240.904L443.594 235.961C443.594 235.961 448.889 253.133 451.923 267.954C453.526 275.832 454.503 283.051 453.703 286.678" fill="#D1F0FC"/>
<path d="M453.703 286.678C451.384 297.125 431.189 305.739 422.223 306.267C413.27 306.783 394.361 298.433 394.548 292.423C394.734 286.424 394.548 240.927 394.548 240.927L394.778 240.904C395.668 250.792 399.216 286.512 403.656 290.336C408.832 294.774 426.586 299.74 426.586 299.74C426.586 299.74 418.259 296.598 419.806 291.38C421.367 286.161 441.287 274.668 443.594 280.941C445.901 287.204 444.857 290.072 444.857 290.072C444.857 290.072 450.406 288.764 451.032 284.072C451.317 281.854 451.648 274.788 451.923 267.954C453.526 275.832 454.503 283.051 453.703 286.678Z" fill="#B5DEED"/>
<path d="M401.447 240.928C401.447 240.928 411.164 212.014 419.452 213.581C427.741 215.147 438.172 239.687 438.172 239.687L430.725 240.928C430.725 240.928 422.206 220.89 418.578 221.674C414.947 222.458 407.133 244.91 407.133 244.91L401.447 240.928Z" fill="#D1F0FC"/>
<path d="M404.715 230.048C406.756 230.689 409.559 216.175 409.559 216.175L413.607 215.482L413.004 221.656L416.523 229.983C416.523 229.983 418.279 230.038 420.435 229.977C420.703 229.971 420.979 229.959 421.255 229.949C422.544 229.897 423.907 229.797 425.083 229.616C425.197 229.603 425.313 229.582 425.423 229.568C426.009 229.464 427.822 228.836 428.028 228.598L426.757 221.668C426.757 221.668 433.07 214.282 433.36 212.835C433.473 212.259 428.734 200.895 428.169 199.646L421.804 199.208C421.804 199.208 411.688 207.649 411.141 208.154C409.156 209.989 407.153 212.104 405.975 214.067C405.474 214.898 405.126 215.703 404.991 216.445C404.058 221.57 402.676 229.41 404.715 230.048" fill="#F68672"/>
<path d="M425.083 229.617C425.197 229.605 425.313 229.583 425.423 229.569C425.333 229.289 425.211 228.925 425.068 228.485C424.745 227.485 424.33 226.127 423.912 224.651C423.504 223.17 423.226 221.811 423.133 220.767C423.112 220.503 423.093 220.263 423.075 220.052C423.079 219.84 423.077 219.655 423.08 219.503C423.075 219.196 423.074 219.018 423.074 219.018C423.074 219.018 422.994 219.178 422.866 219.475C422.799 219.622 422.72 219.808 422.636 220.023C422.573 220.243 422.505 220.492 422.433 220.778C422.167 221.9 422.111 223.537 422.559 225.161C423.016 226.778 423.796 228.046 424.442 228.873C424.682 229.18 424.901 229.425 425.083 229.617" fill="#D03B58"/>
<path d="M420.434 229.978C420.703 229.973 420.978 229.961 421.254 229.951L421.202 229.775C420.88 228.775 420.464 227.417 420.048 225.942C419.639 224.461 419.361 223.101 419.266 222.056C419.247 221.792 419.226 221.558 419.21 221.348C419.21 221.132 419.213 220.947 419.212 220.796C419.209 220.486 419.208 220.314 419.208 220.314C419.208 220.314 419.133 220.47 418.999 220.765C418.938 220.914 418.855 221.098 418.775 221.315C418.708 221.532 418.639 221.787 418.569 222.066C418.302 223.194 418.246 224.833 418.695 226.454C419.118 227.956 419.82 229.157 420.434 229.978" fill="#D03B58"/>
<path d="M421.804 199.211L425.424 165.871L421.255 128.675L440.907 126.887C440.907 126.887 442.902 166.457 442.51 168.415C442.119 170.373 431.908 210.051 431.908 210.051L421.804 199.211Z" fill="#F68672"/>
<path d="M325.683 46.7475L309.036 31.4524L303.649 42.8242L325.683 46.7475Z" fill="white"/>
<path d="M332.827 45.0436L334.498 30.9395L326.741 31.9407L332.827 45.0436Z" fill="white"/>
<path d="M324.959 56.6326L309.881 56.6565L310.555 63.8009L324.959 56.6326Z" fill="white"/>
<path d="M175.703 396.892C175.703 396.892 136.371 407.167 87.8504 407.167C39.3313 407.167 0 396.892 0 396.892C0 396.892 39.3313 386.619 87.8504 386.619C136.371 386.619 175.703 396.892 175.703 396.892" fill="#CBB59B"/>
<path d="M384.265 395.132C384.265 395.132 327.761 405.407 258.059 405.407C188.357 405.407 131.853 395.132 131.853 395.132C131.853 395.132 188.357 384.859 258.059 384.859C327.761 384.859 384.265 395.132 384.265 395.132Z" fill="#CBB59B"/>
<path d="M153.684 148.028L137.435 137.529L131.275 118.06L119.283 121.974L120.644 148.028L147.57 159.3L153.684 148.028Z" fill="#F68672"/>
<path d="M166.65 174.525C166.091 174.42 165.576 174.211 165.086 173.935L165.073 173.926C163.911 173.294 162.914 172.272 161.988 171.285C160.949 170.18 159.847 169.104 158.737 168.038C157.808 167.14 156.881 166.253 155.984 165.351C155.447 164.827 154.941 164.301 154.435 163.763L150.336 161.296C150.336 161.296 149.317 160.572 147.57 159.301L149.703 155.359L149.715 155.368L152.269 150.647L153.688 148.03L157.224 150.25L160.407 152.256C165.11 150.221 170.263 148.706 175.386 148.653C176.228 148.64 177.077 148.692 177.913 148.723L177.934 148.721C179.158 148.787 180.368 148.823 181.579 148.683C183.841 148.409 185.953 147.461 188.139 146.789C188.479 146.687 188.83 146.595 189.183 146.513C189.77 146.363 190.418 146.272 190.951 146.544L191.022 146.592C191.653 146.973 191.888 147.836 191.726 148.566C191.704 148.678 191.661 148.781 191.628 148.883C191.397 149.499 190.95 150.029 190.497 150.515L190.308 150.688C187.805 153.213 184.452 154.864 180.942 155.337C180.488 155.396 179.99 155.449 179.659 155.747C179.36 156.021 179.241 156.45 179.164 156.852C178.867 158.484 179.112 160.168 179.664 161.751C179.934 162.534 180.29 163.307 180.688 164.054L180.701 164.074C181.192 164.986 181.754 165.934 181.698 166.948C181.642 167.765 181.2 168.447 180.594 169.027L180.494 169.126C180.016 169.571 179.442 169.939 178.896 170.261C178.607 170.434 178.318 170.596 178.004 170.75C175.709 172.024 173.29 173.093 170.794 173.93C169.452 174.391 168.037 174.793 166.65 174.525" fill="#F36269"/>
<path d="M190.955 146.546C190.421 146.267 189.774 146.366 189.179 146.509C188.83 146.595 188.478 146.69 188.134 146.791C185.954 147.461 183.844 148.404 181.583 148.68C180.369 148.826 179.156 148.785 177.931 148.717L177.918 148.723C177.078 148.688 176.231 148.638 175.386 148.647C170.263 148.708 165.111 150.217 160.41 152.255L153.684 148.028L152.266 150.644L149.7 155.363L147.57 159.3L156.481 160.406C160.674 157.785 168.833 152.431 174.777 150.808C175.836 150.519 176.815 150.351 177.698 150.334C178.72 150.323 179.765 150.345 180.806 150.342C182.833 150.336 184.837 150.206 186.652 149.359L186.938 149.225C187.945 148.775 189.202 148.342 189.867 148.976C189.952 149.056 190.024 149.142 190.087 149.249C190.331 149.672 190.257 150.193 190.308 150.692L190.493 150.518C190.952 150.031 191.393 149.5 191.625 148.877C191.663 148.776 191.703 148.674 191.722 148.566C191.891 147.835 191.655 146.972 191.018 146.594L190.955 146.546" fill="#F68672"/>
<path d="M168.876 162.863C166.376 164.01 163.577 164.427 160.829 164.307C163.401 165.11 166.199 165.414 168.788 164.67C171.376 163.925 173.712 162.007 174.505 159.432C174.649 158.966 174.822 158.383 174.75 157.936C173.84 158.311 173.059 159.923 172.288 160.622C171.276 161.538 170.117 162.292 168.876 162.863Z" fill="#F14568"/>
<path d="M254.266 180.044C253.695 180.644 252.697 180.783 251.983 180.362C251.349 183.885 250.715 187.41 250.081 190.935C249.933 191.77 249.676 192.74 248.885 193.045C247.848 193.447 246.856 192.397 246.273 191.45C244.897 189.213 244 186.858 243.068 184.48H239.88C240.047 185.948 241.185 187.843 241.743 188.82C242.302 189.799 245.416 198.885 245.612 198.922C247.68 199.34 249.842 199.286 251.888 198.765C251.336 192.45 252.153 186.02 254.266 180.044" fill="#2AB57E"/>
<path d="M258.798 172.1C260.108 170.262 259.538 167.371 257.629 166.167C255.722 164.963 252.868 165.695 251.772 167.668C251.346 165.723 249.404 164.229 247.414 164.315C245.426 164.4 243.619 166.056 243.362 168.031C242.026 165.828 239.16 164.683 236.675 165.358C234.188 166.033 232.295 168.469 232.257 171.045C230.901 170.706 229.401 170.724 228.176 171.398C226.95 172.071 226.088 173.494 226.344 174.868C226.599 176.243 228.166 177.304 229.471 176.799C228.259 177.746 227.89 179.612 228.65 180.948C229.409 182.283 231.201 182.921 232.634 182.366C230.773 184.948 232.244 189.193 235.303 190.07C238.43 190.968 241.539 188.226 241.679 185.148L241.732 185.243C241.748 186.717 242.67 188.101 243.909 188.915C245.208 189.768 246.796 190.076 248.35 190.142C252.696 190.325 259.661 187.397 258.002 181.941L257.998 181.824C260.735 181.564 263.77 180.801 264.119 177.471C264.418 174.605 261.667 171.827 258.798 172.1" fill="#2EAE7D"/>
<path d="M284.41 183.577C283.732 183.873 282.864 183.642 282.423 183.048C280.679 185.728 278.936 188.408 277.193 191.088C276.781 191.722 276.233 192.43 275.476 192.409C274.484 192.381 274.031 191.172 273.88 190.19C273.524 187.873 273.603 185.626 273.661 183.345L271.038 182.24C270.666 183.505 270.946 185.458 271.066 186.457C271.187 187.456 270.599 196.009 270.747 196.108C272.304 197.169 274.102 197.875 275.964 198.155C277.7 192.768 280.6 187.762 284.41 183.577" fill="#2AB57E"/>
<path d="M290.893 178.613C292.608 177.555 293.141 174.979 291.988 173.328C290.835 171.676 288.235 171.288 286.65 172.532C286.974 170.784 285.893 168.881 284.227 168.262C282.561 167.642 280.5 168.38 279.605 169.915C279.269 167.64 277.308 165.704 275.03 165.397C272.75 165.091 270.348 166.44 269.424 168.546C268.426 167.797 267.185 167.291 265.943 167.42C264.702 167.549 263.499 168.422 263.233 169.641C262.966 170.86 263.888 172.277 265.136 172.313C263.813 172.673 262.862 174.079 263.024 175.441C263.185 176.804 264.438 177.95 265.809 177.99C263.384 179.47 263.122 183.47 265.335 185.253C267.597 187.075 271.105 185.897 272.287 183.414L272.298 183.512C271.799 184.729 272.077 186.186 272.817 187.286C273.589 188.438 274.789 189.241 276.043 189.834C279.556 191.492 286.301 191.498 286.827 186.433L286.865 186.335C289.207 187.071 291.968 187.495 293.409 184.876C294.648 182.623 293.348 179.383 290.893 178.613" fill="#2EAE7D"/>
<path d="M338.352 176.27V243.09H291.797V176.27H338.352Z" fill="#5B9FDC"/>
<path d="M305.544 176.274H295.365V172.163H305.544V176.274Z" fill="#363950"/>
<path d="M338.352 207.936V218.446C338.244 218.491 338.134 218.524 338.024 218.568C333.796 220.117 329.809 222.807 327.612 226.75C326.064 229.507 325.208 233.022 322.395 234.471C319.133 236.151 315.312 234.042 311.918 232.625C305.592 229.957 298.299 229.791 291.797 231.945V196.821C295.333 198.447 299.605 198.689 303.35 197.48C309.49 195.504 314.191 190.363 317.068 184.608C318.398 181.94 319.397 179.15 320.21 176.272H326.096C325.548 183.147 326.8 190.166 329.799 196.371C331.886 200.72 334.818 204.653 338.352 207.936" fill="white"/>
<path d="M299.755 207.493L301.771 212.315L303.785 207.493H307.013V216.726H304.352V211.669L302.772 215.832H300.769L299.189 211.669V216.726H296.527V207.493H299.755" fill="#363950"/>
<path d="M311.393 207.493V216.726H308.337V207.493H311.393Z" fill="#363950"/>
<path d="M315.768 207.493V214.185H319.613V216.726H312.712V207.493H315.768" fill="#363950"/>
<path d="M326.284 216.726L324.361 213.552L323.464 214.553V216.726H320.408V207.493H323.464V210.694L326.217 207.493H329.734L326.441 211.208L329.932 216.726H326.284" fill="#363950"/>
<path d="M341.15 222.567C341.771 222.624 342.414 222.666 343.003 222.462C343.591 222.259 344.116 221.744 344.138 221.12C344.165 220.306 343.388 219.719 342.678 219.32C340.424 218.054 337.964 217.155 335.424 216.672C339.05 216.47 342.609 215.196 345.54 213.05C346.487 212.355 347.435 211.029 346.667 210.139C346.201 209.599 345.373 209.614 344.664 209.696C341.91 210.011 339.188 210.635 336.571 211.552C338.611 210 339.961 207.57 340.2 205.018C340.265 204.329 340.159 203.48 339.528 203.201C338.942 202.942 338.287 203.342 337.793 203.747C335.835 205.355 334.215 207.371 333.07 209.629C333.586 208.578 334.116 207.457 334.011 206.29C333.905 205.124 332.887 203.958 331.73 204.148C330.826 204.295 330.236 205.153 329.796 205.955C328.441 208.421 324.606 216.714 326.78 219.295C327.808 220.517 331.775 220.942 333.285 221.296C335.873 221.903 338.502 222.329 341.15 222.567" fill="#2EAE7D"/>
<path d="M323.146 211.476C320.723 211.721 318.456 212.739 316.312 213.942C315.998 214.116 315.675 214.312 315.365 214.501C315.132 214.627 314.918 214.762 314.695 214.893C309.45 218.044 304.098 221.555 299.141 225.478C298.854 225.7 298.561 225.932 298.28 226.17C295.297 228.565 292.47 231.124 289.898 233.84C286.224 237.719 288.127 239.668 292.744 238.769C294.386 238.451 296.022 238.094 297.654 237.687C298.008 237.613 298.37 237.519 298.73 237.435C302.373 236.522 305.985 235.428 309.531 234.163C309.873 234.036 310.215 233.908 310.555 233.78C312.361 233.114 314.15 232.403 315.909 231.645C316.246 231.503 316.572 231.358 316.902 231.202C318.877 230.334 320.82 229.403 322.737 228.424C324.165 227.69 325.609 226.891 326.902 225.944C327.233 225.704 327.554 225.459 327.845 225.202C328.535 224.627 329.168 223.992 329.723 223.287C331.509 220.983 332.321 217.697 330.984 215.108C329.583 212.383 326.189 211.178 323.146 211.476" fill="#F68640"/>
<path d="M294.332 234.091C294.818 235.284 295.31 236.49 295.809 237.687C296.163 237.613 296.525 237.519 296.884 237.434C296.374 236.184 295.865 234.935 295.356 233.685C295.075 233.037 294.064 233.439 294.332 234.091" fill="#F46F2E"/>
<path d="M297.295 225.477C297.008 225.699 296.715 225.931 296.434 226.169C297.688 228.567 298.833 231.026 299.863 233.53C300.129 234.182 301.153 233.776 300.887 233.122C299.818 230.518 298.618 227.964 297.295 225.477Z" fill="#F46F2E"/>
<path d="M304.007 226.827C305.444 229.16 306.672 231.618 307.685 234.162C308.027 234.036 308.369 233.907 308.71 233.78C307.669 231.139 306.381 228.596 304.884 226.177C304.513 225.573 303.634 226.223 304.007 226.827" fill="#F46F2E"/>
<path d="M309.548 221.362C311.423 224.616 312.937 228.071 314.063 231.646C314.4 231.504 314.726 231.359 315.056 231.203C313.9 227.555 312.354 224.037 310.43 220.703C310.083 220.097 309.201 220.757 309.548 221.362Z" fill="#F46F2E"/>
<path d="M314.467 213.942C314.152 214.116 313.829 214.312 313.519 214.502C315.54 217.696 317.032 221.202 317.905 224.896C318.069 225.565 319.158 225.45 318.992 224.756C318.081 220.926 316.548 217.272 314.467 213.942Z" fill="#F46F2E"/>
<path d="M321.853 216.489C321.599 216.691 321.595 217.001 321.732 217.264C323.246 219.977 324.376 222.908 325.057 225.943C325.387 225.703 325.709 225.458 325.999 225.201C325.267 222.204 324.128 219.318 322.625 216.609C322.473 216.352 322.065 216.33 321.853 216.489Z" fill="#F46F2E"/>
<path d="M329.287 201.788C329.253 201.165 329.205 200.523 328.917 199.97C328.632 199.417 328.046 198.97 327.427 199.039C326.617 199.128 326.148 199.981 325.854 200.742C324.924 203.154 324.387 205.717 324.272 208.3C323.554 204.741 321.781 201.4 319.239 198.808C318.415 197.971 316.966 197.223 316.195 198.11C315.727 198.649 315.862 199.466 316.045 200.155C316.751 202.838 317.759 205.44 319.042 207.9C317.212 206.102 314.615 205.115 312.054 205.244C311.363 205.278 310.54 205.504 310.354 206.171C310.182 206.787 310.671 207.378 311.143 207.809C313.013 209.517 315.242 210.829 317.64 211.641C316.525 211.279 315.341 210.915 314.202 211.186C313.063 211.459 312.054 212.635 312.407 213.751C312.683 214.625 313.617 215.086 314.475 215.407C317.108 216.394 325.865 219.001 328.108 216.479C329.17 215.286 329.024 211.299 329.157 209.753C329.386 207.106 329.431 204.441 329.287 201.788" fill="#2EAE7D"/>
<path d="M321.157 223.023C321.746 225.385 323.078 227.482 324.575 229.432C324.793 229.718 325.033 230.01 325.265 230.288C325.422 230.501 325.587 230.694 325.748 230.897C329.62 235.634 333.863 240.428 338.454 244.772C338.717 245.025 338.988 245.28 339.264 245.525C342.061 248.133 344.999 250.564 348.055 252.72C352.422 255.799 354.077 253.635 352.527 249.196C351.976 247.618 351.387 246.049 350.751 244.492C350.627 244.153 350.482 243.807 350.348 243.463C348.922 239.989 347.322 236.57 345.56 233.243C345.385 232.924 345.21 232.604 345.036 232.285C344.117 230.593 343.157 228.925 342.154 227.292C341.966 226.979 341.775 226.677 341.573 226.373C340.43 224.542 339.231 222.753 337.987 220.998C337.057 219.689 336.059 218.374 334.936 217.229C334.651 216.936 334.363 216.655 334.067 216.403C333.399 215.802 332.679 215.267 331.902 214.819C329.366 213.383 325.998 213.049 323.627 214.745C321.13 216.522 320.426 220.053 321.157 223.023" fill="#F68640"/>
<path d="M347.406 246.47C348.514 245.818 349.638 245.158 350.751 244.493C350.627 244.154 350.482 243.808 350.348 243.464C349.184 244.149 348.02 244.832 346.855 245.516C346.254 245.887 346.796 246.828 347.406 246.47Z" fill="#F46F2E"/>
<path d="M338.455 244.774C338.717 245.026 338.989 245.281 339.265 245.526C341.457 243.94 343.726 242.454 346.056 241.076C346.666 240.719 346.116 239.765 345.508 240.122C343.082 241.554 340.727 243.107 338.455 244.774" fill="#F46F2E"/>
<path d="M338.827 237.935C340.932 236.179 343.187 234.61 345.561 233.243C345.385 232.924 345.21 232.604 345.036 232.285C342.571 233.693 340.239 235.333 338.06 237.161C337.516 237.614 338.284 238.39 338.827 237.935" fill="#F46F2E"/>
<path d="M332.625 233.235C335.576 230.912 338.778 228.919 342.154 227.292C341.966 226.978 341.775 226.677 341.573 226.373C338.128 228.039 334.87 230.074 331.846 232.457C331.297 232.886 332.075 233.666 332.625 233.235" fill="#F46F2E"/>
<path d="M324.576 229.433C324.793 229.719 325.034 230.012 325.266 230.29C328.139 227.833 331.394 225.854 334.923 224.46C335.563 224.201 335.292 223.141 334.63 223.403C330.971 224.853 327.573 226.896 324.576 229.433" fill="#F46F2E"/>
<path d="M326.04 221.755C326.276 221.979 326.582 221.938 326.823 221.763C329.291 219.877 332.029 218.337 334.936 217.228C334.651 216.936 334.363 216.654 334.067 216.403C331.205 217.557 328.513 219.099 326.047 220.974C325.814 221.161 325.852 221.569 326.04 221.755" fill="#F46F2E"/>
<path d="M305.452 250.324C305.43 250.51 305.409 250.685 305.376 250.873C305.112 252.487 304.694 254.102 304.123 255.661C302.991 258.758 301.267 261.636 298.951 263.887C298.346 264.48 297.71 265.03 297.017 265.513C296.467 265.931 295.886 266.293 295.27 266.633C291.987 268.435 288.286 268.961 284.606 268.511C283.771 268.412 282.937 268.26 282.102 268.05C279.115 267.325 276.216 265.985 273.668 264.184C272.459 263.327 271.328 262.383 270.307 261.339C270.131 261.163 269.966 260.988 269.813 260.812C263.718 254.354 260.752 245.536 258.72 236.892C255.788 224.383 251.746 207.358 256.699 194.816C257.951 191.653 260.302 189.149 263.201 187.381C264.332 186.688 265.551 186.106 266.815 185.645C267.452 185.404 268.099 185.195 268.758 185.03C269.527 184.822 270.307 184.645 271.098 184.526C271.8 184.415 272.503 184.338 273.207 184.295C273.931 184.251 274.667 184.24 275.393 184.272C276.424 184.305 277.446 184.415 278.445 184.602C279.258 184.756 280.049 184.954 280.806 185.217C281.74 185.513 282.619 185.887 283.464 186.337C291.262 190.543 295.117 199.451 297.863 207.864C300.422 215.661 302.509 223.602 304.145 231.642C305.398 237.792 306.375 244.129 305.452 250.324" fill="#20795A"/>
<path d="M273.668 264.184C272.458 263.327 271.328 262.383 270.307 261.338C270.131 261.163 269.966 260.988 269.813 260.812C269.659 260.438 269.505 260.065 269.363 259.68C264.76 247.72 262.125 234.837 259.961 222.229C257.972 210.631 257.446 197.945 263.201 187.381C264.332 186.688 265.551 186.106 266.814 185.645L266.716 185.81C262.816 191.597 261.071 198.462 260.773 205.382C260.487 212.191 261.521 218.957 262.816 225.623C264.002 231.773 265.276 237.913 266.803 243.986C268.539 250.884 270.692 257.736 273.668 264.184" fill="#51C292"/>
<path d="M284.607 268.511C283.772 268.413 282.937 268.26 282.103 268.05C280.896 264.766 279.676 261.493 278.468 258.21C276.141 251.895 273.251 245.536 271.879 238.924C270.56 232.543 270.758 225.963 269.462 219.572C268.177 213.267 266.541 207.062 266.65 200.583C266.738 195.333 267.661 190.16 268.758 185.03C269.528 184.822 270.308 184.646 271.098 184.526C269.736 190.862 268.55 197.277 268.913 203.778C269.264 210.148 271.241 216.266 272.229 222.537C273.24 228.917 272.987 235.42 274.844 241.659C276.71 247.93 279.27 254.046 281.533 260.186C282.564 262.965 283.586 265.733 284.607 268.511" fill="#51C292"/>
<path d="M298.951 263.887C298.346 264.48 297.709 265.03 297.017 265.513C296.271 260.868 295.182 256.277 293.876 251.752C290.471 239.978 285.616 228.731 281.311 217.287C277.313 206.656 273.898 195.685 273.207 184.295C273.93 184.251 274.666 184.24 275.392 184.272C275.776 190.488 276.995 196.618 278.698 202.603C282.014 214.333 287.011 225.502 291.23 236.913C294.479 245.7 297.336 254.674 298.951 263.887Z" fill="#51C292"/>
<path d="M305.453 250.325C305.43 250.512 305.409 250.687 305.376 250.874C305.112 252.488 304.694 254.103 304.124 255.663C303.839 253.664 303.497 251.677 303.103 249.688C300.709 237.508 296.534 225.856 290.955 214.784C286.057 205.065 280.5 195.389 278.446 184.604C279.258 184.758 280.05 184.955 280.807 185.219C281.971 190.632 284.013 195.816 286.387 200.825C288.979 206.317 291.922 211.633 294.547 217.113C297.183 222.604 299.466 228.261 301.334 234.059C303.047 239.386 304.42 244.822 305.453 250.325" fill="#51C292"/>
<path d="M312.851 274.747C312.851 280.413 298.132 282.556 288.073 282.336C278.408 282.544 264.481 280.578 263.383 275.418C263.318 275.197 263.295 274.977 263.295 274.747C263.295 269.959 268.787 242.941 271.368 230.507C272.171 226.697 272.685 224.248 272.685 224.248H303.449C303.449 224.248 303.965 226.697 304.767 230.507C307.348 242.941 312.851 269.959 312.851 274.747Z" fill="#FAB663"/>
<path d="M304.767 230.507C303.965 226.697 303.45 224.248 303.45 224.248H297.981H272.685C272.685 224.248 272.171 226.697 271.368 230.507H299.399C302.486 244.307 306.957 265.566 306.074 268.87C304.833 273.604 283.306 281.886 263.383 275.418C264.482 280.578 278.408 282.544 288.073 282.336C298.132 282.556 312.851 280.413 312.851 274.747C312.851 269.959 307.348 242.941 304.767 230.507" fill="#F7923D"/>
<path d="M306.076 226.788H270.062V218.568H306.076V226.788Z" fill="#FAB663"/>
<path d="M299.022 257.13H271.619V244.864H299.022V257.13Z" fill="white"/>
<path d="M348.063 275.284C348.063 280.95 333.347 283.092 323.287 282.872C313.621 283.082 299.696 281.115 298.596 275.953C298.531 275.734 298.509 275.515 298.509 275.284C298.509 270.494 304 243.477 306.58 231.043C307.383 227.234 307.899 224.784 307.899 224.784H338.663C338.663 224.784 339.179 227.234 339.979 231.043C342.561 243.477 348.063 270.494 348.063 275.284" fill="#F04242"/>
<path d="M339.98 231.043C339.179 227.234 338.663 224.784 338.663 224.784H333.193H307.9C307.9 224.784 307.383 227.234 306.581 231.043H334.613C337.7 244.844 342.171 266.102 341.288 269.408C340.046 274.141 318.52 282.422 298.597 275.953C299.696 281.115 313.621 283.082 323.287 282.872C333.347 283.092 348.064 280.95 348.064 275.284C348.064 270.494 342.561 243.477 339.98 231.043" fill="#EF2D2E"/>
<path d="M341.292 227.328H305.277V219.107H341.292V227.328Z" fill="#F04242"/>
<path d="M334.236 257.666H306.833V245.4H334.236V257.666Z" fill="white"/>
<path d="M235.215 205.485L212.169 206.895C212.169 206.895 201.88 155.449 208.12 140.701C209.057 138.472 210.376 137.087 212.169 136.836C219.213 135.86 225.123 154.17 229.187 172.123C233.012 188.969 235.215 205.485 235.215 205.485" fill="#FAB663"/>
<path d="M222.264 157.545C218.43 154.857 213.978 153.056 209.355 152.319C212.995 155.895 217.167 157.795 222.264 157.545Z" fill="#F7923D"/>
<path d="M223.642 170.653C219.808 167.965 215.357 166.164 210.733 165.427C214.374 169.003 218.546 170.903 223.642 170.653Z" fill="#F7923D"/>
<path d="M225.136 184.357C221.302 181.669 216.852 179.868 212.228 179.131C215.869 182.707 220.04 184.606 225.136 184.357Z" fill="#F7923D"/>
<path d="M229.187 172.125C228.593 170.147 228.039 168.155 227.473 166.176C225.771 160.32 223.845 154.396 220.297 149.436C217.315 145.294 213.014 141.878 208.121 140.704C209.057 138.475 210.376 137.089 212.17 136.839C219.214 135.862 225.124 154.172 229.187 172.125" fill="#F7923D"/>
<path d="M245.753 278.126L235.96 190.2L205.494 192.756L214.778 278.126H245.753Z" fill="#C07E53"/>
<path d="M269.268 244.088C269.037 244.936 267.927 245.584 266.617 246.067C266.628 238.909 266.632 231.857 266.624 226.459C268.261 226.712 269.691 227.021 269.82 227.345C270.136 228.134 269.899 241.774 269.268 244.088V244.088ZM273.684 223.061C272.911 221.847 269.587 221.329 266.605 221.11C266.59 218.534 266.567 216.933 266.535 216.754C266.325 215.598 253.709 207.502 253.709 207.502V199.512H236.678V208.343C236.678 208.343 224.904 216.754 224.063 218.855C223.222 220.959 224.063 278.148 224.063 278.148H266.535C266.535 278.148 266.579 265.455 266.607 251.612C269.841 250.867 273.455 249.918 273.684 249.344C274.104 248.292 275.155 225.374 273.684 223.061Z" fill="#D1F0FC"/>
<path d="M256.181 203.14H234.262V193.205H256.181V203.14Z" fill="#363950"/>
<path d="M337.625 357.087H190.04C189.213 357.087 188.431 356.715 187.91 356.073C187.388 355.431 187.184 354.588 187.353 353.78L203.012 279.009C203.322 277.524 204.777 276.576 206.262 276.884C207.746 277.194 208.697 278.651 208.387 280.134L193.421 351.596H337.625C339.14 351.596 340.37 352.825 340.37 354.343C340.37 355.859 339.14 357.087 337.625 357.087Z" fill="#BCBEBC"/>
<path d="M192.387 182.884C191.118 182.884 189.979 182 189.705 180.71L186.773 166.914L158.514 162.693C157.014 162.469 155.98 161.072 156.204 159.572C156.428 158.072 157.825 157.041 159.325 157.262L189.469 161.764C190.602 161.934 191.509 162.789 191.748 163.909L195.075 179.568C195.391 181.051 194.443 182.509 192.96 182.823C192.769 182.865 192.576 182.884 192.387 182.884Z" fill="#363950"/>
<path d="M208.11 276.879L344.723 279.907L357.529 206.725L195.594 183.376L208.11 276.879ZM347.021 285.45L346.959 285.449L205.64 282.317C204.286 282.287 203.158 281.278 202.978 279.937L189.668 180.503C189.554 179.651 189.847 178.793 190.459 178.188C191.07 177.582 191.931 177.297 192.782 177.422L361.114 201.693C361.849 201.799 362.508 202.198 362.945 202.799C363.381 203.4 363.555 204.154 363.427 204.884L349.725 283.179C349.494 284.494 348.352 285.45 347.021 285.45Z" fill="#BCBEBC"/>
<path d="M334.39 254.374L316.679 254.147L318.75 222.892L338.475 223.825L334.39 254.374ZM296.86 253.893L297.792 221.9L316.555 222.788L314.479 254.119L296.86 253.893ZM279.874 253.675V221.052L295.597 221.797L294.662 253.865L279.874 253.675ZM260.585 253.428L260.284 220.125L277.677 220.949V253.647L260.585 253.428ZM241.014 253.176L239.745 219.153L258.087 220.021L258.387 253.399L241.014 253.176ZM222.928 252.943L219.704 218.204L237.542 219.049L238.815 253.148L222.928 252.943ZM357.412 222.522L340.969 221.745L343.619 201.931C343.699 201.331 343.277 200.778 342.675 200.697C342.075 200.618 341.521 201.039 341.442 201.64L338.768 221.639L318.895 220.698L320.365 198.504C320.405 197.899 319.947 197.376 319.342 197.336C318.738 197.292 318.213 197.754 318.172 198.359L316.7 220.596L297.855 219.704L298.597 194.262C298.615 193.656 298.138 193.151 297.531 193.132C296.937 193.094 296.419 193.592 296.402 194.198L295.661 219.6L279.874 218.853V192.593C279.874 191.987 279.382 191.495 278.776 191.495C278.169 191.495 277.677 191.987 277.677 192.593V218.75L260.264 217.924L260.01 189.719C260.005 189.116 259.513 188.63 258.912 188.63H258.902C258.295 188.636 257.808 189.132 257.813 189.739L258.067 217.821L239.662 216.951L238.53 186.591C238.507 185.985 237.99 185.502 237.392 185.535C236.785 185.557 236.312 186.067 236.334 186.673L237.46 216.846L219.499 215.995L216.471 183.351C216.415 182.747 215.876 182.306 215.276 182.359C214.672 182.414 214.228 182.95 214.283 183.554L217.284 215.89L197.248 214.943C196.637 214.928 196.127 215.382 196.099 215.987C196.071 216.594 196.538 217.108 197.144 217.137L217.489 218.1L220.719 252.916L202.261 252.678H202.247C201.647 252.678 201.157 253.161 201.148 253.763C201.141 254.369 201.626 254.868 202.232 254.874L220.923 255.115L223.2 279.672C223.255 280.242 223.732 280.67 224.293 280.67L224.396 280.664C225 280.609 225.444 280.073 225.388 279.469L223.132 255.144L238.896 255.345L239.83 280.392C239.852 280.984 240.34 281.45 240.927 281.45L240.97 281.449C241.575 281.425 242.048 280.917 242.026 280.312L241.095 255.374L258.407 255.596L258.625 279.58C258.63 280.183 259.121 280.67 259.723 280.67H259.733C260.339 280.664 260.827 280.167 260.821 279.561L260.605 255.625L277.677 255.843V281.549C277.677 282.155 278.169 282.647 278.776 282.647C279.382 282.647 279.874 282.155 279.874 281.549V255.872L294.598 256.061L293.857 281.516C293.838 282.123 294.316 282.628 294.922 282.646L294.954 282.647C295.546 282.647 296.035 282.176 296.052 281.581L296.795 256.089L314.335 256.314L312.639 281.892C312.599 282.497 313.058 283.021 313.663 283.06L313.737 283.063C314.311 283.063 314.794 282.618 314.832 282.036L316.534 256.343L334.097 256.569L330.668 282.218C330.588 282.82 331.009 283.372 331.61 283.453L331.757 283.462C332.3 283.462 332.77 283.062 332.845 282.51L336.31 256.597L351.732 256.795H351.747C352.346 256.795 352.837 256.312 352.845 255.71C352.853 255.104 352.367 254.606 351.761 254.597L336.602 254.404L340.677 223.929L357.308 224.716L357.361 224.717C357.943 224.717 358.429 224.26 358.457 223.671C358.486 223.065 358.018 222.55 357.412 222.522" fill="#BCBEBC"/>
<path d="M226.846 383.548C226.846 391.307 220.556 397.599 212.797 397.599C205.037 397.599 198.747 391.307 198.747 383.548C198.747 375.788 205.037 369.499 212.797 369.499C220.556 369.499 226.846 375.788 226.846 383.548Z" fill="#363950"/>
<path d="M209.658 355.705L212.563 374.721L207.676 385.021L212.563 388.323L226.824 373.93L227.748 355.705H209.658Z" fill="#DCDDDA"/>
<path d="M214.412 383.834C214.412 384.927 213.524 385.814 212.431 385.814C211.336 385.814 210.449 384.927 210.449 383.834C210.449 382.74 211.336 381.854 212.431 381.854C213.524 381.854 214.412 382.74 214.412 383.834Z" fill="#363950"/>
<path d="M233.84 359.552H203.559V349.953H233.84V359.552Z" fill="#363950"/>
<path d="M319.102 383.548C319.102 391.307 312.812 397.599 305.053 397.599C297.293 397.599 291.002 391.307 291.002 383.548C291.002 375.788 297.293 369.499 305.053 369.499C312.812 369.499 319.102 375.788 319.102 383.548Z" fill="#363950"/>
<path d="M301.216 355.705L304.122 374.721L299.235 385.021L304.122 388.323L318.384 373.93L319.308 355.705H301.216" fill="#DCDDDA"/>
<path d="M305.971 383.834C305.971 384.927 305.085 385.814 303.99 385.814C302.896 385.814 302.009 384.927 302.009 383.834C302.009 382.74 302.896 381.854 303.99 381.854C305.085 381.854 305.971 382.74 305.971 383.834Z" fill="#363950"/>
<path d="M325.399 359.552H295.118V349.953H325.399V359.552" fill="#363950"/>
<path d="M101.896 70.2475C101.896 70.2475 121.926 76.6354 123.882 79.3787C125.84 82.1221 140.335 130.077 140.335 130.077L111.294 136.259L101.896 70.2475Z" fill="#DCDDDA"/>
<path d="M142.24 125.936L144.735 134.74L118.654 139.832L117.814 132.036L142.24 125.936Z" fill="white"/>
<path d="M63.1061 392.597C63.5417 391.779 63.8365 390.67 63.2014 389.562C61.3459 386.328 54.0103 375.15 52.8797 370.996C52.0019 367.768 52.8698 362.767 53.3021 360.692L33.6264 347.845C28.8691 351.869 21.1001 360.636 19.4829 362.479L63.1061 392.597Z" fill="#DD3464"/>
<path d="M60.0261 396.892L16.4019 366.774L19.4833 362.477L63.1064 392.595L60.0261 396.892" fill="white"/>
<path d="M48.3429 369.66L48.1478 369.748C47.6645 369.978 47.1125 370.462 47.4561 371.037C47.6313 371.331 47.956 371.504 48.2719 371.643C49.3626 372.124 50.5376 372.328 51.7203 372.443C52.9916 372.565 54.3528 372.687 55.5731 372.223C56.8356 371.742 56.5995 370.318 55.4102 369.811C53.3541 368.937 50.4411 368.759 48.3429 369.66" fill="white"/>
<path d="M49.97 374.225L49.7738 374.313C49.2905 374.541 48.7385 375.025 49.0821 375.6C49.2573 375.895 49.582 376.068 49.899 376.207C50.9897 376.687 52.1635 376.893 53.3473 377.007C54.6187 377.129 55.9798 377.251 57.2002 376.787C58.4616 376.306 58.2255 374.882 57.0373 374.376C54.9812 373.5 52.0671 373.324 49.97 374.225" fill="white"/>
<path d="M52.9197 378.532L52.7246 378.619C52.2402 378.849 51.6882 379.333 52.0318 379.908C52.2069 380.202 52.5317 380.375 52.8487 380.514C53.9394 380.994 55.1144 381.199 56.297 381.313C57.5684 381.436 58.9295 381.557 60.1499 381.093C61.4113 380.613 61.1763 379.189 59.987 378.682C57.9309 377.808 55.0168 377.63 52.9197 378.532" fill="white"/>
<path d="M107.168 290.899L80.7194 265.342L28.1191 345.579L56.4172 365.193L107.168 290.899Z" fill="#282A3E"/>
<path d="M84.0786 199.723C85.922 219.659 88.3472 251.998 85.4132 259.014C85.3212 259.236 84.6185 260.407 83.4668 262.274L113.112 288.519C113.112 288.519 123.719 271.151 124.999 264.597C127.87 249.889 121.886 210.974 120.376 199.723H84.0786Z" fill="#282A3E"/>
<path d="M122.122 282.875L95.1216 199.726H50.0752C53.641 208.558 82.03 278.884 89.2902 296.331L98.8481 375.38L129.231 369.069L128.482 360.023L122.122 282.875" fill="#363950"/>
<path d="M103.402 282.256C104.307 285.563 106.476 288.507 109.366 290.35C111.281 291.573 113.931 292.259 115.734 290.876C117.39 289.605 117.569 287.198 117.397 285.117C117.177 282.465 116.617 279.841 115.736 277.329C114.937 275.054 113.764 272.745 111.69 271.516C104.33 267.15 102.068 277.375 103.402 282.256" fill="#52546E"/>
<path d="M155.366 385.959C155.129 385.065 154.588 384.05 153.36 383.648C149.771 382.474 136.688 379.025 133.006 376.69C130.147 374.878 127.368 370.599 126.268 368.777L102.898 372.223C102.125 378.34 102.369 389.956 102.43 392.385L155.366 385.959" fill="#DD3464"/>
<path d="M156.023 391.172L103.087 397.599L102.43 392.385L155.366 385.958L156.023 391.172Z" fill="white"/>
<path d="M128.732 378.691L128.647 378.887C128.446 379.376 128.368 380.097 129.017 380.298C129.347 380.4 129.707 380.313 130.036 380.209C131.172 379.845 132.184 379.225 133.139 378.529C134.165 377.781 135.257 376.976 135.843 375.827C136.45 374.639 135.3 373.739 134.073 374.148C131.949 374.854 129.671 376.643 128.732 378.691" fill="white"/>
<path d="M133.061 381.001L132.976 381.195C132.775 381.684 132.696 382.406 133.345 382.607C133.676 382.708 134.034 382.623 134.364 382.517C135.501 382.154 136.513 381.533 137.467 380.838C138.492 380.09 139.584 379.284 140.171 378.136C140.778 376.948 139.628 376.049 138.4 376.456C136.278 377.163 133.999 378.951 133.061 381.001" fill="white"/>
<path d="M138.192 382.248L138.107 382.442C137.907 382.931 137.828 383.652 138.477 383.853C138.808 383.955 139.166 383.869 139.496 383.764C140.632 383.401 141.644 382.78 142.599 382.085C143.624 381.337 144.716 380.531 145.302 379.383C145.91 378.194 144.76 377.294 143.532 377.703C141.409 378.41 139.131 380.198 138.192 382.248" fill="white"/>
<path d="M104.613 362.482C104.613 362.482 96.7676 298.329 94.9841 291.494C93.3913 285.401 65.3648 214.969 59.2973 199.726H50.0752C53.641 208.558 82.03 278.884 89.2902 296.331L98.8481 375.38L129.231 369.069L128.482 360.023L104.613 362.482" fill="#282A3E"/>
<path d="M75.1083 67.8266C75.1083 67.8266 60.4649 71.296 58.1161 73.1537C55.7674 75.0114 48.945 187.427 51.8347 199.726C51.8347 199.726 101.866 201.658 121.225 198.686C121.225 198.686 120.555 90.5404 118.011 83.6893C115.466 76.8381 101.896 70.2485 101.896 70.2485L84.4412 76.2517L75.1083 67.8266" fill="#DCDDDA"/>
<path d="M79.8243 66.1847L75.1079 67.8263C75.1079 67.8263 79.975 84.6998 90.1891 88.8763L99.685 81.0841L108.95 86.6251C108.95 86.6251 102.874 71.6836 101.895 70.2481L97.0414 69.3392L79.8243 66.1847" fill="white"/>
<path d="M80.6345 71.4518C81.0745 71.7622 99.685 81.0851 99.685 81.0851C99.685 81.0851 97.9957 73.6376 97.1323 69.7548C96.8696 68.5522 96.68 67.691 96.6468 67.5003C96.3741 65.9352 96.5293 58.9244 96.5293 58.9244L78.5684 54.2169C78.5684 54.2169 78.9042 57.6929 79.3088 61.5237C79.7976 66.1447 80.3917 71.2811 80.6345 71.4518" fill="#F68672"/>
<path d="M79.3088 61.521C84.514 64.0715 95.9728 69.638 97.0391 69.7488L97.1323 69.7521C96.8696 68.5495 96.68 67.6883 96.6468 67.4976C96.3741 65.9325 96.5293 58.9217 96.5293 58.9217L78.5684 54.2142C78.5684 54.2142 78.9042 57.6903 79.3088 61.521" fill="#F36269"/>
<path d="M76.3939 55.1933C76.3939 55.1933 77.0191 56.3217 79.1639 57.6407H79.1672C79.605 57.9123 80.1104 58.1916 80.6857 58.4709C82.8804 59.5306 102.515 64.1738 105.264 63.3081C108.014 62.4424 108.98 52.307 108.949 51.2651C108.767 44.8661 107.892 25.1461 107.892 25.1461C97.2855 5.33859 74.4131 20.5406 71.958 23.0956C69.5028 25.6516 76.3939 55.1933 76.3939 55.1933" fill="#F68672"/>
<path d="M79.167 57.6407C79.6048 57.9123 80.1103 58.1916 80.6855 58.4709C82.8802 59.5306 102.515 64.1738 105.264 63.3081C108.014 62.4424 108.98 52.307 108.949 51.2651C107.937 55.8185 106.981 62.0379 104.955 62.1975C101.903 62.4402 81.5889 58.421 79.167 57.6407" fill="#F9AA7F"/>
<path d="M107.015 32.894C107.015 32.894 104.226 27.9161 102.101 29.4613C99.9764 31.0064 100.801 31.3068 100.801 31.3068L107.015 32.894" fill="#353638"/>
<path d="M79.5986 30.9001C79.5986 30.9001 85.8823 23.6267 88.4683 26.1993C89.9779 27.7001 88.9338 28.7276 88.9338 28.7276L79.5986 30.9001Z" fill="#353638"/>
<path d="M84.5167 39.8512C84.8547 41.792 86.1095 43.1953 87.3188 42.9847C88.5281 42.7741 89.2341 41.0294 88.8949 39.0875C88.5569 37.1455 87.3022 35.7434 86.0929 35.954C84.8836 36.1646 84.1775 37.9092 84.5167 39.8512Z" fill="#121414"/>
<path d="M82.0825 38.2536C82.0825 38.2536 83.0635 39.3276 84.4922 39.6347C85.921 39.9417 87.2556 39.3664 87.2556 39.3664C87.2556 39.3664 86.2757 38.2935 84.8469 37.9864C83.4182 37.6783 82.0825 38.2536 82.0825 38.2536" fill="white"/>
<path d="M105.446 37.5611C105.701 39.0253 105.169 40.3399 104.258 40.4984C103.346 40.658 102.401 39.6006 102.145 38.1363C101.89 36.6732 102.422 35.3575 103.334 35.199C104.245 35.0405 105.191 36.098 105.446 37.5611" fill="#121414"/>
<path d="M106.638 36.0264C106.638 36.0264 106.195 36.9098 105.313 37.4585C104.43 38.0094 103.443 38.0171 103.443 38.0171C103.443 38.0171 103.886 37.1348 104.769 36.585C105.651 36.0352 106.638 36.0264 106.638 36.0264Z" fill="white"/>
<path d="M91.6226 55.5275C93.4271 56.0717 95.4655 55.778 97.0416 54.7461C96.6005 55.7104 95.8612 56.3632 94.8093 56.5073C93.7574 56.6492 92.4627 56.1759 91.6226 55.5275" fill="#F14568"/>
<path d="M105.232 45.9588C105.654 46.6781 107.331 46.4775 108.978 45.511C110.626 44.5433 111.619 43.1766 111.196 42.4572C110.775 41.7379 109.097 41.9385 107.45 42.9062C105.803 43.8727 104.81 45.2394 105.232 45.9588Z" fill="#F36269"/>
<path d="M82.4383 46.2314C82.3396 47.4451 84.5122 48.6101 87.2899 48.8362C90.0665 49.0612 92.3975 48.2598 92.4961 47.0472C92.5948 45.8346 90.4234 44.6685 87.6457 44.4435C84.868 44.2185 82.5369 45.0188 82.4383 46.2314" fill="#F36269"/>
<path d="M86.813 50.989C86.813 50.989 86.9548 51.1265 87.202 51.3648C87.4525 51.612 87.8494 51.9312 88.3781 52.2793C89.4244 52.9787 91.0937 53.7014 93.0545 53.851C95.0153 53.9907 96.7722 53.5218 97.9105 52.9831C98.4836 52.716 98.9236 52.4588 99.2074 52.2515C99.4867 52.052 99.6474 51.9367 99.6474 51.9367C99.6474 51.9367 99.4623 52.0055 99.1409 52.1241C98.8228 52.2537 98.345 52.4012 97.7576 52.5519C96.5826 52.8578 94.9311 53.0662 93.121 52.9377C91.3132 52.8002 89.7093 52.3502 88.5909 51.8747C88.0333 51.6397 87.5822 51.4235 87.2863 51.2495C86.9859 51.0844 86.813 50.989 86.813 50.989Z" fill="#F14568"/>
<path d="M95.8923 45.3081L94.979 43.0114C94.979 43.0114 98.3719 44.2806 100.329 43.4969V45.716H98.894L95.8923 45.3081" fill="#F36269"/>
<path d="M100.856 46.2013C99.1996 46.4695 97.3874 46.0682 95.8921 45.3079C97.1956 45.146 98.5157 45.1217 99.8237 45.2336C99.694 41.3829 98.9513 37.3283 96.4053 34.4387C98.1455 35.7388 99.4612 37.5433 100.142 39.6061C100.822 41.6689 100.953 44.031 100.856 46.2013" fill="#F14568"/>
<path d="M79.2111 55.4672C75.397 55.8263 72.2679 54.0716 70.4756 52.4589C70.0721 52.0953 69.7374 51.7373 69.4769 51.4147C68.0626 49.6524 66.5751 42.9486 69.0679 40.8958C70.8159 39.4582 72.5051 40.8071 73.3597 41.746V41.7493C73.7244 42.1472 73.9372 42.472 73.9372 42.472L79.2111 55.4672Z" fill="#F9AA7F"/>
<path d="M79.2112 55.4672C75.3971 55.8263 72.268 54.0716 70.4757 52.4589C70.3161 52.2904 70.1731 52.1275 70.0489 51.9712C68.6346 50.2099 67.1471 43.5061 69.641 41.4544C71.0554 40.2884 72.432 40.9523 73.3598 41.746V41.7493C73.7245 42.1472 73.9373 42.472 73.9373 42.472L79.2112 55.4672Z" fill="#F68672"/>
<path d="M69.1315 46.4153C69.0872 46.9806 69.2734 47.527 69.5439 48.0303C70.6955 50.1662 73.2626 51.5018 75.7111 52.7311C74.8654 51.7457 74.4087 50.5453 74.3312 49.3127C74.3046 48.8838 74.3223 48.4481 74.2525 48.0258C73.972 46.3222 69.3942 43.0767 69.1315 46.4153" fill="#F36269"/>
<path d="M76.913 53.1883L76.7778 53.1395C76.6902 53.1063 76.5528 53.0653 76.392 52.9921C76.0673 52.8491 75.6117 52.6075 75.1528 52.2129C74.6962 51.8183 74.2484 51.2641 73.9591 50.5647C73.6864 49.8664 73.57 49.0162 73.8172 48.135C73.8404 48.0241 73.8815 47.9166 73.9236 47.8091L73.9535 47.7293L73.9579 47.7193L73.9568 47.7226L73.9591 47.7204H73.9602L73.9513 47.7094L73.9047 47.6506L73.8083 47.5342L73.6143 47.3081C73.3505 47.0121 73.0745 46.7384 72.7974 46.4879C72.5192 46.2374 72.2366 46.0123 71.9617 45.8084C71.6835 45.6078 71.4185 45.4193 71.1636 45.2908C70.9098 45.16 70.6449 45.0924 70.4077 45.1023C70.1716 45.1167 69.9621 45.2076 69.8279 45.3063C69.6916 45.406 69.6262 45.5158 69.604 45.5934L69.5852 45.7142L69.5708 45.5911C69.5719 45.5102 69.6118 45.3806 69.7415 45.2442C69.8701 45.1112 70.084 44.9704 70.3888 44.9095C70.6936 44.8529 71.0417 44.8984 71.3642 45.0126C71.6912 45.1278 71.9938 45.2908 72.3142 45.4703C72.6334 45.6543 72.9615 45.8649 73.284 46.1077C73.6055 46.3504 73.9236 46.6242 74.2217 46.929L74.4412 47.1629L74.5487 47.2848L74.6928 47.4566L74.7926 47.5785L74.7416 47.726L74.664 47.9377L74.5742 48.2192C74.3592 48.984 74.4124 49.7367 74.592 50.3884C74.7859 51.0368 75.1118 51.5888 75.4643 52.0078C75.819 52.429 76.1914 52.7216 76.4652 52.9112C76.6015 53.0065 76.7201 53.0675 76.7955 53.1163L76.913 53.1883" fill="#D03B58"/>
<path d="M63.8975 37.0953L64.5924 37.716L68.6404 41.3472C72.3935 40.1423 76.4659 46.6399 76.4659 46.6399L76.7508 28.1015C81.4261 27.4276 96.0761 20.2649 96.0761 20.2649L108.119 30.243C108.119 30.243 109.034 28.8541 110.051 26.7836C111.91 22.9784 114.086 16.8798 111.428 12.9638C107.329 6.91397 91.4307 4.17061 91.4307 4.17061L85.5384 7.93703C85.5384 7.93703 71.2275 10.5485 67.6207 13.9569C64.0138 17.3653 63.8975 37.0953 63.8975 37.0953" fill="#121414"/>
<path d="M63.8975 37.0962L64.5924 37.7169C66.9722 36.9067 69.1614 35.509 70.9082 33.6878C71.785 35.509 72.6651 37.3401 73.5419 39.1601C74.79 34.2952 74.9839 29.192 74.1648 24.2485C82.8138 24.9268 91.668 20.2293 95.9531 12.6732C101.92 15.8322 106.892 20.8312 110.051 26.7845C110.776 25.3159 111.529 23.5025 112.049 21.6115C112.868 18.5933 113.059 15.3689 111.428 12.9647C107.329 6.91493 91.4307 4.17157 91.4307 4.17157L85.5384 7.93799C85.5384 7.93799 71.2275 10.5494 67.6207 13.9579C65.6022 15.8677 64.67 22.894 64.2555 28.7065C63.9207 33.2788 63.8975 37.0962 63.8975 37.0962" fill="#353638"/>
<path d="M64.2554 28.7046L64.2665 28.7024C66.6994 28.3876 68.2379 25.9967 69.4317 23.8597C69.9161 25.3693 70.4138 26.8868 70.8982 28.3965C72.6295 25.0867 73.4276 21.2937 73.176 17.555C81.7785 19.8405 91.6191 16.349 96.8508 9.14866C103.467 10.6661 109.174 15.4844 112.048 21.6096C112.868 18.5913 113.059 15.3669 111.428 12.9628C107.329 6.91298 91.4306 4.16962 91.4306 4.16962L85.5383 7.93605C85.5383 7.93605 71.2274 10.5475 67.6205 13.9559C65.6021 15.8657 64.6699 22.892 64.2554 28.7046" fill="#4A4C4E"/>
<path d="M19.1747 142.802C19.1747 142.802 10.9546 202.621 14.0859 208.394C17.2172 214.167 35.5018 218.082 43.9757 218.473C52.4496 218.864 71.6376 210.252 72.4179 206.337C73.1982 202.422 67.6439 142.802 67.6439 142.802H19.1747" fill="#F46D3C"/>
<path d="M81.9729 170.193C81.2591 172.187 68.132 165.734 68.132 165.734L65.168 168.514L70.4009 171.725L74.8723 179.473C74.8723 179.473 73.867 180.891 72.5313 182.556C72.3662 182.766 72.1933 182.975 72.0192 183.188C71.2101 184.174 70.3167 185.19 69.471 186.009L69.2304 186.248C68.7992 186.65 68.3869 186.993 68.0134 187.249C67.5944 187.532 67.2209 187.705 66.9105 187.725L62.1986 182.586C62.1986 182.586 52.6018 183.158 51.2872 182.523C50.7652 182.269 49.4107 180.121 47.9664 177.626C47.277 176.427 44.6267 171.744 43.9761 170.554L47.431 165.268L55.2465 163.457C56.1621 163.21 57.3803 162.905 58.7492 162.614V162.609C59.422 162.464 60.1314 162.324 60.8574 162.193C63.491 161.721 66.3552 161.405 68.6075 161.648C69.563 161.747 70.4065 161.953 71.0726 162.291C75.6748 164.613 82.6856 168.204 81.9729 170.193" fill="#F68672"/>
<path d="M69.4709 186.01L69.2303 186.25C69.063 186.012 68.849 185.698 68.5875 185.322C67.9911 184.472 67.1665 183.333 66.2509 182.122C65.3265 180.917 64.4198 179.885 63.6505 179.187C63.4555 179.014 63.2781 178.857 63.1207 178.716C62.9511 178.592 62.8081 178.48 62.6851 178.392C62.4468 178.205 62.3071 178.097 62.3071 178.097C62.3071 178.097 62.4789 178.129 62.7926 178.205C62.9467 178.241 63.1407 178.29 63.3612 178.352C63.5718 178.434 63.809 178.527 64.0773 178.643C65.1214 179.103 66.4471 180.035 67.4624 181.358C68.4644 182.685 68.9998 184.057 69.268 185.061C69.3656 185.434 69.4288 185.752 69.4709 186.01" fill="#D03B58"/>
<path d="M72.5312 182.556C72.3661 182.766 72.1932 182.975 72.0192 183.188L71.9116 183.04C71.3153 182.189 70.4917 181.052 69.5762 179.843C68.6506 178.634 67.744 177.604 66.9758 176.905C66.7807 176.731 66.6067 176.575 66.4504 176.439C66.2808 176.309 66.1323 176.201 66.0148 176.111C65.771 175.923 65.6357 175.82 65.6357 175.82C65.6357 175.82 65.8031 175.851 66.1168 175.923C66.2709 175.963 66.4648 176.009 66.6854 176.074C66.896 176.152 67.1377 176.25 67.4015 176.361C68.4511 176.824 69.7768 177.758 70.7866 179.08C71.7199 180.309 72.2486 181.581 72.5312 182.556" fill="#D03B58"/>
<path d="M27.5525 151.433L37.1226 128.512H14.4808C9.94847 140.97 4.59699 157.523 6.3882 161.89C9.35767 169.129 47.9663 177.627 47.9663 177.627L50.6964 164.512L27.5525 151.433" fill="#F68672"/>
<path d="M62.9609 71.1394C62.9609 71.1394 50.5576 74.1687 44.0279 79.4171C37.4982 84.6677 9.90838 130.82 9.37744 134.085L36.1692 142.801L55.5311 118.65L62.9609 71.1394" fill="#DCDDDA"/>
<path d="M5.04004 141.041L8.20569 130.076L40.902 139.626L35.6304 148.719L5.04004 141.041Z" fill="white"/>
<path d="M121.526 118.367C121.474 117.311 121.239 116.292 121.218 115.232C121.194 114.003 121.176 112.774 121.131 111.544C121.053 109.343 120.743 107.159 120.532 104.967C119.859 98.0141 119.646 90.7794 115.947 84.6154C115.877 84.5002 115.711 84.601 115.769 84.7196C117.255 87.77 117.907 91.3158 118.392 94.6566C118.91 98.2213 119.197 101.888 119.268 105.489C119.31 107.596 119.322 109.705 119.451 111.808C119.515 112.861 119.572 113.916 119.614 114.97C119.656 116.05 119.476 117.038 119.391 118.106C119.233 120.082 119.259 122.05 119.337 124.028C119.42 126.131 119.749 128.161 119.419 130.264C119.269 131.225 120.706 131.663 120.909 130.675C121.305 128.747 121.424 126.711 121.405 124.747C121.385 122.62 121.628 120.494 121.526 118.367" fill="#BCBEBC"/>
<path d="M102.646 92.5944C102.646 93.8735 101.608 94.9099 100.329 94.9099C99.0502 94.9099 98.0127 93.8735 98.0127 92.5944C98.0127 91.3141 99.0502 90.2777 100.329 90.2777C101.608 90.2777 102.646 91.3141 102.646 92.5944Z" fill="#52546E"/>
<path d="M102.646 101.858C102.646 103.137 101.608 104.174 100.329 104.174C99.0502 104.174 98.0127 103.137 98.0127 101.858C98.0127 100.578 99.0502 99.5421 100.329 99.5421C101.608 99.5421 102.646 100.578 102.646 101.858Z" fill="#52546E"/>
<path d="M102.646 111.124C102.646 112.404 101.608 113.441 100.329 113.441C99.0502 113.441 98.0127 112.404 98.0127 111.124C98.0127 109.846 99.0502 108.808 100.329 108.808C101.608 108.808 102.646 109.846 102.646 111.124Z" fill="#52546E"/>
<path d="M165.893 175.085C163.167 171.734 162.761 166.445 162.761 166.445C163.458 165.813 164.353 165.259 165.365 164.788C165.785 164.579 166.229 164.393 166.692 164.217C167.715 163.829 168.814 163.493 169.946 163.216C170.439 163.088 170.939 162.971 171.44 162.866C172.775 162.587 174.107 162.366 175.358 162.199C175.895 162.12 176.415 162.058 176.912 161.997C178.267 161.847 179.45 161.754 180.336 161.696C181.364 161.629 181.988 161.611 181.988 161.611C183.483 165.279 182.63 171.489 182.63 171.489C181.415 172.391 179.999 173.08 178.522 173.594C172.719 175.628 165.893 175.085 165.893 175.085" fill="#F68672"/>
<path d="M177.355 168.299C177.355 168.299 177.109 167.802 176.795 167.045C176.481 166.282 176.084 165.276 175.779 164.146C175.593 163.46 175.46 162.798 175.359 162.201C175.895 162.121 176.415 162.059 176.913 161.998C177.181 162.482 177.421 163.042 177.589 163.656C177.925 164.908 177.873 166.107 177.724 166.951C177.577 167.795 177.355 168.299 177.355 168.299" fill="#D03B58"/>
<path d="M172.068 168.912C172.068 168.912 171.791 168.456 171.447 167.757C171.103 167.052 170.675 166.111 170.357 165.038C170.17 164.402 170.044 163.779 169.946 163.216C170.439 163.088 170.939 162.971 171.44 162.865C171.718 163.338 171.98 163.89 172.16 164.509C172.502 165.676 172.484 166.81 172.373 167.613C172.257 168.421 172.068 168.912 172.068 168.912" fill="#D03B58"/>
<path d="M167.577 170.911C167.577 170.911 167.281 170.44 166.912 169.698C166.547 168.948 166.099 167.941 165.776 166.79C165.579 166.087 165.449 165.402 165.365 164.787C165.785 164.579 166.229 164.393 166.692 164.217C167.033 164.792 167.36 165.492 167.58 166.284C167.925 167.513 167.929 168.69 167.838 169.536C167.747 170.387 167.577 170.911 167.577 170.911Z" fill="#D03B58"/>
<path d="M178.522 173.595C179.321 172.527 180.008 171.396 180.365 170.121C180.696 168.955 180.729 167.73 180.723 166.524C180.719 165.144 180.769 163.663 180.523 162.299C180.494 162.12 180.419 161.916 180.336 161.697C181.364 161.629 181.988 161.612 181.988 161.612C183.483 165.279 182.63 171.49 182.63 171.49C181.415 172.392 180 173.08 178.522 173.595" fill="#F9AA7F"/>
<path d="M50.1005 142.801C50.1005 142.801 51.251 110.166 51.1324 105.86C51.0149 101.553 41.8804 78.4561 41.8804 78.4561C41.8804 78.4561 44.6171 75.3248 46.5103 75.194C46.5103 75.194 56.3642 102.467 56.1037 105.86C55.8421 109.251 54.0154 142.801 54.0154 142.801H50.1005" fill="#F46D3C"/>
<path d="M134.581 55.9083L151.22 40.6176L156.606 51.9856L134.581 55.9083Z" fill="white"/>
<path d="M127.438 54.2044L125.768 40.1064L133.523 41.1062L127.438 54.2044Z" fill="white"/>
<path d="M135.305 65.7882L150.376 65.8126L149.703 72.9542L135.305 65.7882Z" fill="white"/>
</svg>
