<svg width="109" height="109" viewBox="0 0 109 109" fill="none" xmlns="http://www.w3.org/2000/svg">
<g filter="url(#filter0_d_8_3417)">
<rect x="23" y="14" width="63.2236" height="63.2236" rx="19.5347" fill="#EE2F2F"/>
</g>
<path d="M51.7316 31.4972L67.5317 47.2973C68.2619 48.0274 68.2619 49.2248 67.5317 49.9696C66.8016 50.6997 65.6188 50.7143 64.874 49.9842L64.8594 49.9696C64.1293 49.254 62.9611 49.2686 62.231 49.9842L53.2357 58.9794C52.5056 59.7095 51.3228 59.7095 50.5926 58.9794C49.8625 58.2493 49.8625 57.0665 50.5926 56.3363L59.6317 47.2973C60.3326 46.5964 60.3326 45.4427 59.6317 44.7418L59.5441 44.6542C58.8431 43.9533 57.6895 43.9533 56.9886 44.6542L43.9192 57.7236C43.1891 58.4537 42.0063 58.4537 41.2761 57.7236C40.9111 57.3585 40.7358 56.8766 40.7358 56.4093C40.7358 55.9274 40.9111 55.4602 41.2761 55.0951L54.3163 42.0549C54.6814 41.6899 54.8566 41.208 54.8566 40.7407C54.8566 40.2588 54.6814 39.7915 54.3163 39.4264C53.5862 38.6963 52.4034 38.6963 51.6732 39.4264L45.3649 45.7348C44.6347 46.4649 43.4519 46.4649 42.7218 45.7348C42.3567 45.3697 42.1815 44.8878 42.1815 44.4206C42.1815 43.9387 42.3713 43.4714 42.7218 43.1063L49.074 36.7542C49.7749 36.0532 49.7749 34.8996 49.074 34.1987L49.0448 34.1695C48.6797 33.8044 48.4899 33.3225 48.4899 32.8406C48.4899 32.3588 48.6797 31.8769 49.0448 31.5118C49.8041 30.7671 51.0015 30.7671 51.7316 31.4972Z" fill="#FEFEFE"/>
<path d="M68.5967 30.4461C72.4664 34.3158 72.9191 40.3028 69.9548 44.669C69.3414 45.5744 68.0564 45.7058 67.2679 44.9319L54.1109 31.7749C53.3369 31.001 53.4538 29.7159 54.3737 29.088C58.7399 26.1237 64.727 26.5763 68.5967 30.4461Z" fill="#FEFEFE"/>
<path d="M71.9951 29.658C72.7193 28.9338 72.7193 27.7596 71.9951 27.0354C71.2708 26.3111 70.0966 26.3111 69.3724 27.0354C68.6481 27.7596 68.6481 28.9338 69.3724 29.658C70.0966 30.3823 71.2708 30.3823 71.9951 29.658Z" fill="#FEFEFE"/>
<rect x="36.5576" y="49.4574" width="4.42715" height="3.69979" rx="1.34417" transform="rotate(-45 36.5576 49.4574)" fill="#FEFEFE"/>
<rect x="35.3354" y="61.0665" width="4.42715" height="3.69979" rx="1.34417" transform="rotate(-45 35.3354 61.0665)" fill="#FEFEFE"/>
<rect x="44.5" y="62.2886" width="4.42715" height="3.69979" rx="1.34417" transform="rotate(-45 44.5 62.2886)" fill="#FEFEFE"/>
<defs>
<filter id="filter0_d_8_3417" x="0.801495" y="0.680897" width="107.621" height="107.621" filterUnits="userSpaceOnUse" color-interpolation-filters="sRGB">
<feFlood flood-opacity="0" result="BackgroundImageFix"/>
<feColorMatrix in="SourceAlpha" type="matrix" values="0 0 0 0 0 0 0 0 0 0 0 0 0 0 0 0 0 0 127 0" result="hardAlpha"/>
<feOffset dy="8.8794"/>
<feGaussianBlur stdDeviation="11.0993"/>
<feColorMatrix type="matrix" values="0 0 0 0 0.858333 0 0 0 0 0.284504 0 0 0 0 0.12875 0 0 0 0.2 0"/>
<feBlend mode="normal" in2="BackgroundImageFix" result="effect1_dropShadow_8_3417"/>
<feBlend mode="normal" in="SourceGraphic" in2="effect1_dropShadow_8_3417" result="shape"/>
</filter>
</defs>
</svg>
